<?xml version="1.0" encoding="utf-8"?>
<!-- Generator: Adobe Illustrator 23.0.1, SVG Export Plug-In . SVG Version: 6.00 Build 0)  -->
<svg version="1.1" id="Calque_1" xmlns="http://www.w3.org/2000/svg" xmlns:xlink="http://www.w3.org/1999/xlink" x="0px" y="0px"
	 viewBox="0 0 521 353.2" style="enable-background:new 0 0 521 353.2;" xml:space="preserve">
<style type="text/css">
	.st0{fill:#D15854;}
</style>
<g>
	<g>
		<g>
			<path class="st0" d="M126.8,317.8c0-0.4-1.6-0.5,0.6-1.3c3.5-1.1,6.8-1.4,10-1.8c3.3-0.4,6.5-0.9,10.1-1.7
				c0.1-0.3,0.3-0.5,0.4-0.8c5.6-0.7,11.4-1.5,17.4-2.1c2.7-0.5,5.4-1,8.1-1.4c2.7-0.5,5.4-0.9,8.1-1.3c2.7-0.4,5.4-0.9,8.1-1.3
				c2.7-0.4,5.4-0.8,8.1-1.1c-0.3-0.2-0.5-0.5,0.6-0.7c2.2-0.4,4.9-0.7,7.9-1c2.9-0.3,6.1-0.4,9.4-0.7c1-0.1,1.9-0.3,2.9-0.4
				c0.7-0.2,0.9-0.5,1-0.7c2.9-0.2,5.6-0.4,8-0.5c31.8-3.6,64.6-5.7,100.1-4.1c3.8,0,7.5,0,11.3,0.1c3.7,0.1,7.4,0.4,11,0.7
				c2.7,0.3,5.5,0.6,8.5,1c2.9,0.4,5.9,1,8.9,1.5c3,0.5,6,1.1,8.9,1.6c1.4,0.3,2.9,0.5,4.2,0.8c1.4,0.3,2.7,0.6,4,0.8
				c-1.1-2.8,24.3,1,19.8-2.4c6.8,1.7,17.1,4.3,17.8,3.7c0.5-0.4,1.3-0.8,2.5-1.1c1.1-0.3,2.7-0.4,4.7-0.4c4,0.1,10.2,0.8,19.5,2.9
				c7.1,2,17.7,6.5,20.3,6.9c4.1,0.7-8.6-4.5-4.5-3.8c-26.1-9.4-52.5-16.3-79.2-21c-26.8-4.8-53.9-7.7-81.7-9c-2.4,0-6.4,0-11.8,0
				c-2.7,0-5.7,0-9,0c-1.6,0-3.3,0-5.1,0c-1.8,0-3.6,0.1-5.5,0.1c-3.8,0.1-7.8,0.2-12,0.2c-4.2,0.2-8.5,0.4-13,0.6
				c-4.5,0.1-9.1,0.5-13.7,0.8c-4.7,0.4-9.4,0.6-14.2,1.1c-19.1,1.6-38.4,4.3-55,7c-8.3,1.3-15.9,2.8-22.4,4c-6.5,1.3-12,2.4-16,3.2
				c-1,0.2-1.9,0.5-2.9,0.7c-4.3,1-8.9,2-13.6,3.2c-4.6,1.2-9.3,2.3-13.9,3.7c-4.6,1.3-9.1,2.6-13.3,4c-4.2,1.4-8.2,2.7-11.7,4.1
				c-3.2,1.3-6.4,2.6-9.6,4.1c-3.2,1.4-6.4,2.8-9.6,4.3c3.2-0.7,6.2-1.2,8.8-1.6c-6.8,2.1-13.5,4.5-15.9,5.8
				c-6.9,3.1-8.2,4.3-7.1,4.5c1.1,0.3,4.8-0.3,7.8-0.4c4.2-0.7-0.7,2.3,5.6,0.8c-4.4,1.6-6.6,2.3-11,3.9c-0.3,0.8,13.4-5.3,10.7-3.1
				c-2.2,0.6-4.4,1.5-6.6,2.4c-2.2,0.9-4.5,1.9-6.6,2.7c0.9,0.2,4.7-1.2,8.3-2.4c3.5-1.2,6.8-2.3,6.6-1.7c-2.3,1-12.7,3.2-13.1,4.7
				c-0.1,0.3,4.3-1.3,6.5-2.1c-6.7,2.6-11.7,5-13.4,6.3c-1.8,1.3-0.4,1.3,5.9-0.4c-2.1,0.8-4.7,1.7-7.3,2.6c-2.6,0.9-5.2,2-7.2,2.9
				c0,0,0,0,0,0c2-0.9,5.9-2.2,8-3c-2.5,1-5,2-7.4,3.1c0.4,0,0.9,0,1.5-0.1c1.9-0.6,3.8-1.3,5.7-2.1c-1.7,0.7-3.3,1.3-4.9,2
				c1.4-0.2,2.9-0.4,4.6-0.7c6.1-1.7,12.3-2.8,15.5-3.9C72.5,331.3,99.6,323.9,126.8,317.8z"/>
		</g>
	</g>
</g>
<g>
	<g>
		<path class="st0" d="M21.1,254.7c-7.4-9.3-11.1-22.4-11.2-39.1c0-14.8,2.1-29.8,6.5-45.1c4.4-15.3,9.3-29.6,14.6-42.9
			c5.4-13.3,10.4-25.2,15-35.5c4.6-10.4,7.5-18,8.4-22.9c-0.5,1,1.1,2.2,4.8,3.7c3.7,1.5,7.8,3.7,12.2,6.6
			c4.4,2.9,8.6,6.8,12.6,11.4c4,4.7,5.9,10.7,6,18.1c0,5.4-2.4,11.8-7.3,19.2l-0.7,0c-8.3,15.8-16.8,32.6-25.3,50.3
			C48.2,196.2,43.9,213,44,228.7c0,5.4,0.8,9.9,2.3,13.3c1.5,3.4,4.9,5.2,10.4,5.1c8.4,0,18.7-5.1,31-15.2
			c12.3-10.1,23.3-26.5,33.1-49.2l1.5-0.7c2,0,3.7,0.7,5.2,2.2l1.5,1.5c0-0.5-1.1,3.6-3.3,12.2c-2.2,8.6-6.2,18.2-12.1,28.9
			c-5.9,10.6-13.9,20.4-23.9,29.3c-10.1,8.9-22.7,13.4-38,13.4c-4.9,0-10.1-1-15.5-2.9C30.5,264.5,25.6,260.6,21.1,254.7z
			 M118.1,46.8c-2.5,5.4-6.1,9.9-11,13.3c-4.9,3.5-10.1,5.2-15.5,5.2c-6.9,0-11.8-2.4-14.8-7.3c-3-4.9-4.5-10.6-4.5-17
			c0-7.9,2.3-14.3,7-19.2c4.7-4.9,10.4-7.4,17.3-7.4c6.9,0,12.6,2.2,17,6.6c4.4,4.4,6.7,9.8,6.7,16.2
			C120.3,40.6,119.5,43.8,118.1,46.8z"/>
		<g>
			<path class="st0" d="M21.1,254.7c-7.4-9.3-11.1-22.4-11.2-39.1c0-14.8,2.1-29.8,6.5-45.1c4.4-15.3,9.3-29.6,14.6-42.9
				c5.4-13.3,10.4-25.2,15-35.5c4.6-10.4,7.5-18,8.4-22.9c-0.5,1,1.1,2.2,4.8,3.7c3.7,1.5,7.8,3.7,12.2,6.6
				c4.4,2.9,8.6,6.8,12.6,11.4c4,4.7,5.9,10.7,6,18.1c0,5.4-2.4,11.8-7.3,19.2l-0.7,0c-8.3,15.8-16.8,32.6-25.3,50.3
				C48.2,196.2,43.9,213,44,228.7c0,5.4,0.8,9.9,2.3,13.3c1.5,3.4,4.9,5.2,10.4,5.1c8.4,0,18.7-5.1,31-15.2
				c12.3-10.1,23.3-26.5,33.1-49.2l1.5-0.7c2,0,3.7,0.7,5.2,2.2l1.5,1.5c0-0.5-1.1,3.6-3.3,12.2c-2.2,8.6-6.2,18.2-12.1,28.9
				c-5.9,10.6-13.9,20.4-23.9,29.3c-10.1,8.9-22.7,13.4-38,13.4c-4.9,0-10.1-1-15.5-2.9C30.5,264.5,25.6,260.6,21.1,254.7z
				 M118.1,46.8c-2.5,5.4-6.1,9.9-11,13.3c-4.9,3.5-10.1,5.2-15.5,5.2c-6.9,0-11.8-2.4-14.8-7.3c-3-4.9-4.5-10.6-4.5-17
				c0-7.9,2.3-14.3,7-19.2c4.7-4.9,10.4-7.4,17.3-7.4c6.9,0,12.6,2.2,17,6.6c4.4,4.4,6.7,9.8,6.7,16.2
				C120.3,40.6,119.5,43.8,118.1,46.8z"/>
			<g>
				<path class="st0" d="M89.1,58.4c0,0.3,0.3,0.6-0.3,0.6c-1,0-1.6-0.4-2.3-0.7c-0.3-0.2-0.6-0.4-0.9-0.6c-0.3-0.2-0.5-0.4-0.9-0.5
					l-0.3,0.3c-0.8-0.8-1.4-1.7-1.9-2.9c-0.2-0.2-0.4-0.6-0.6-0.9c-0.2-0.3-0.4-0.6-0.6-1c-0.3-0.7-0.7-1.3-1-2
					c-0.6-1.4-1-2.8-1.4-4.3c-0.1,0.1-0.3,0.2-0.4-0.1c-0.3-1.3-0.4-3.1-0.4-5c0-0.3-0.1-0.6-0.1-0.8c-0.1-0.2-0.2-0.3-0.3-0.3
					c0.1-0.9,0.1-1.7,0.2-2.3c0-4.6,1.2-9,4.1-12.9c2.9-3.9,7.2-6.7,12.6-7.6c2.3-0.6,4.8-0.8,7-0.5c1.7,0.2,3.5,1,5.2,1.8
					c1.6,1,3.2,2.1,4.3,3.3c0.2-0.4,0.7-0.4,1.4-0.1c0.7,0.3,1.6,0.8,2.4,1.4c1.6,1.1,3,2.5,3.2,1.3c1.4,2.2,2.6,5.9,2.9,6.1
					c0.7,0.1,1.6,0.6,2.4,2.1c0.4,0.7,0.9,1.7,1.2,3c0.4,1.3,0.5,2.9,0.6,4.9c-0.1,0.8-0.2,1.7-0.4,2.6c-0.2,0.9-0.6,1.8-0.8,2.6
					c-0.6,1.6-1.4,2.9-1.4,3.5c-0.1,0.4,0,0.4,0.2,0.2c0.2-0.1,0.5-0.6,0.8-1c0.6-0.9,1.2-1.8,1.1-0.9c1.1-2.9,1.9-5.9,2-8.9
					c0.1-1.5,0-3,0-4.4c-0.2-1.5-0.3-2.9-0.7-4.4c-0.7-2.9-1.9-5.8-3.5-8.3c-1.6-2.6-3.5-4.8-5.8-6.7c-4.5-4-10.5-6.4-16.2-6.9
					c-1.4-0.2-2.8-0.2-4.3-0.2c-1.4,0.1-2.9,0.1-4.3,0.3c-2.9,0.3-5.9,1.3-8.6,2.5c-1.8,1-6.3,3.6-10.2,8.6c-2,2.5-3.9,5.7-5.1,9.2
					c-1.2,3.6-1.8,7.4-1.9,11.1c-0.1,3.7,0.2,7.5,1.1,11.2c0.9,3.7,2.3,7.1,4,10.1c0.2,0.4,0.5,0.8,0.7,1.2c0.3,0.4,0.5,0.8,0.8,1.2
					c0.5,0.8,1.2,1.4,1.8,2.1c0.6,0.7,1.4,1.2,2,1.8c0.7,0.6,1.4,1,2.1,1.4c0.7,0.4,1.3,0.8,2,1c0.7,0.3,1.3,0.6,1.9,0.8
					c1.2,0.3,2.2,0.7,3.1,0.8l1.3,0.2c0.5,0.1,1,0.2,1.4,0.2c0.5,0,1,0.1,1.4,0.1c0.5,0,1,0,1.5,0.1c0.5,0,1,0,1.5-0.1
					c2-0.1,4-0.5,6-0.9c3.9-1.1,7.2-2.9,9.5-4.8c2.1-1.7,4-3.8,5.6-6c-1,0.7-2.1,1.2-3,1.7c2.1-1.6,3.9-3.6,4.4-4.6
					c1.6-2.4,1.6-3.1,1-3c-0.5,0-1.7,0.8-2.7,1.2c-1.3,0.8-0.6-1.1-2.3,0.2c0.5-0.6,0.9-1,1.3-1.4c0.4-0.5,0.7-0.9,1.2-1.5
					c-0.1-0.2-0.8,0.8-1.5,1.6c-0.7,0.8-1.4,1.5-1.3,0.9c1.1-1,2-2.4,2.9-3.7c-0.4,0.1-1.2,1.1-2,2c-0.9,0.9-1.6,1.7-1.8,1.4
					c0.2-0.3,1.1-1,1.8-1.7c0.7-0.7,1.3-1.4,1.1-1.8c-0.1-0.1-1,1.1-1.5,1.6c1.4-1.9,2.1-3.5,2.2-4.2c0.1-0.7-0.4-0.5-1.8,0.9
					c0.8-1.1,2-2.7,2.5-4.1l0,0c-0.4,0.6-1,1.7-1.4,2.3c0.5-0.7,0.8-1.5,1.2-2.2c-0.1,0.1-0.3,0.2-0.5,0.3c-0.4,0.5-0.7,1.1-1,1.6
					c0.3-0.5,0.5-1,0.8-1.4c-0.4,0.3-0.8,0.6-1.2,0.9c-1.3,1.5-2.9,2.5-3.5,3.2c-1.3,1.5-2.7,2.8-4.3,4c-1.6,1.2-3.3,2.2-5,3
					c-1.7,0.8-3.5,1.3-5.2,1.6C92.7,58.6,90.8,58.6,89.1,58.4z"/>
			</g>
			<g>
				<path class="st0" d="M48.2,104.5c-0.2-0.2-1.3,1.8-0.1-1.5c1.9-4.8,3.8-8.9,5.8-13.3c1-2.1,2-4.3,2.9-6.6
					c0.2-0.6,0.5-1.1,0.7-1.7c0.1-0.3,0.2-0.6,0.4-0.9c0.1-0.3,0.2-0.6,0.3-0.9c0,0,0-0.1,0-0.1c-0.1-0.2-0.2-0.4-0.3-0.6l0.1-0.1
					l0-0.1c0,0,0,0.1,0,0.1c0.1,0.1,0.2,0.2,0.3,0.3l0.3,0.2c0,0,0,0,0,0l0,0c0,0,0.2,0.1,0.2,0.1c0.4,0.2,0.9,0.4,1.3,0.7
					c1.7,0.9,3.4,1.9,5.2,3c0.9,0.6,1.7,1.2,2.6,1.7l2.3,1.8c2.8,2.2,5.6,4.7,8.1,7.5c0.3,0.3,0.7,0.7,0.9,1l0.7,0.9
					c0.4,0.6,0.8,1.2,1.2,1.9c0.3,0.7,0.7,1.3,0.9,2c0.3,0.7,0.5,1.4,0.7,2.2c0.2,0.7,0.3,1.6,0.5,2.3c0.1,0.8,0.2,1.6,0.3,2.5
					l0.1,1.3c0,0.2,0,0.4,0,0.6l0,0.5c0,0.7-0.1,1.4-0.2,2.1c-0.5,3-1.9,6.2-3.7,9.4c0.3-0.3,0.5-0.3-0.1,1
					c-0.5,0.9-1.1,1.8-1.7,2.9c1.6-0.8,3.1-1.7,5-2.7c-0.2,0-0.5,0-0.7,0l-3.7,0l-1.6,3.2c-2.8,5.5-6.3,12.3-9.9,19.3
					c-0.6,1.3-1.3,2.6-1.9,3.9c-0.4,1-0.4,1.4-0.4,1.6c-2,3.9-3.8,7.4-5.5,10.7c-2.6,5.4-5.3,10.8-7.8,16.4
					c-1.2,2.9-2.5,5.7-3.6,8.6c-0.5,1.5-1.1,2.9-1.6,4.4l-1.5,4.5c-0.5,1.5-0.9,3-1.3,4.6c-0.4,1.5-0.9,3.1-1.2,4.6l-1,4.7
					c-0.4,1.6-0.5,3.2-0.7,4.7c-0.2,1.6-0.5,3.2-0.6,4.8c-0.1,1.6-0.3,3.2-0.3,4.8c0,1.6,0,3.2-0.1,4.9c0,1.6,0.1,3.3,0.2,5
					c0.1,0.8,0.2,1.7,0.3,2.6c0.1,0.9,0.2,1.7,0.5,2.6c0.2,0.9,0.4,1.7,0.6,2.6l1,2.6c0.1,0.2,0.2,0.4,0.3,0.7l0.4,0.8
					c0.3,0.5,0.6,1,1,1.5c0.7,1,1.7,1.8,2.6,2.5c2,1.4,4.1,1.9,6.1,2.3c1,0.1,1.9,0.3,2.9,0.2c0.5,0,0.9,0,1.4,0l1.4-0.1
					c0.9-0.1,1.9-0.1,2.7-0.3l2.6-0.6c0.9-0.2,1.7-0.5,2.5-0.8c0.8-0.3,1.7-0.6,2.5-0.9c1.5-0.7,3.2-1.4,4.6-2.2
					c6-3.2,11.3-7.2,16.4-11.5c5.1-4.4,9.7-9.5,13.7-14.9c6.6-9.4,11.8-19.5,16.2-29.4c1-2.2,2-4.5,3.1-6.9c-0.3,0.3-0.6,0.6-0.9,1
					c0.5-0.2,1-0.5,1.5-0.7c-0.3,0.1-0.6,0.1-0.9,0.2c0.9,0.1,1.9,0.2,2.7,0.8c0.2,0.1,0.4,0.3,0.6,0.4l0.6,0.5
					c0.5,0.5,0.9,0.9,1.4,1.4l3.4,3.4l0-4.8c0-0.1,0-0.2,0-0.4l0-0.2c-0.1-0.2,0.2,0.2-0.3-0.6c-0.5-1-2.4-0.9-2.6-0.5
					c-0.1,0.1-0.2,0.1-0.3,0.2c-0.2,0.1-0.3,0.3-0.4,0.5c-0.1,0.1-0.1,0.3-0.1,0.3l-0.1,0.2l-0.1,0.3l-0.2,0.6l-0.3,1.1l-0.6,2.2
					c-0.4,1.4-0.8,2.9-1.2,4.4c-0.4,1.4-0.7,2.9-1.2,4.3c-0.4,1.4-0.9,2.8-1.3,4.2c-0.4,1.4-0.9,2.7-1.4,4.1c-0.5,1.3-1,2.6-1.5,3.9
					c-1.1,2.5-2.3,5-3.3,7.3c0.3-0.2,0.3,0.2,0.1,1c-0.2,0.8-0.6,1.9-1.2,3.4c-0.6,1.4-1.3,3.1-2.1,4.9c-0.9,1.7-1.9,3.6-2.8,5.4
					c-0.5,0.9-0.9,1.8-1.4,2.7c-0.5,0.8-1,1.6-1.5,2.4c-1,1.5-1.8,2.9-2.4,4c-0.6,1.1-1,1.8-1.1,2.2c-0.1,0.3,0.2,0.3,1-0.3
					c-1.8,2-3.7,4.2-5.7,6.4c-0.5,0.6-1,1.1-1.5,1.6c-0.5,0.5-1.1,1-1.6,1.5c-1,1-2.1,2-3,2.9c-1.8,1.9-3.8,3.4-5.2,4.6
					c-1.4,1.1-2.4,1.8-2.5,2c-0.4,0.6-1,1.5-2.2,2.6c-0.6,0.5-1.4,1.1-2.3,1.8c-0.5,0.3-1,0.7-1.5,1.1c-0.6,0.3-1.2,0.7-1.9,1
					c-1.4,0.7-2.9,1.6-4.8,2.3c-0.9,0.4-1.9,0.7-3,1.1c-1.1,0.3-2.2,0.6-3.4,1c-2.4,0.7-5.2,1.1-8.2,1.5c-1.5,0.1-3.1,0.2-4.8,0.4
					c-0.8,0.1-1.7,0.1-2.7,0c-0.9,0-1.9,0-2.9-0.1c-1.5-0.2-3.1-0.4-4.8-0.7c-0.8-0.2-1.6-0.4-2.5-0.6c-0.4-0.1-0.8-0.2-1.3-0.3
					l-1.2-0.4c-1.6-0.5-3.2-1-5-1.8c-1.7-0.8-3.4-1.7-4.8-2.7c-5.9-4-9.2-8.7-10.6-10.2c-1-1.1-1-1-0.5-0.2c0.2,0.4,0.7,1,1.2,1.7
					c0.5,0.7,1.1,1.5,1.7,2.3c2.5,3.1,5.7,5.9,2.8,3.8c2.8,2.6,6,4.8,9.7,6.5c1.9,0.9,3.6,1.3,5.2,1.9l1.3,0.4l1.3,0.3l2.6,0.6
					c1.8,0.3,3.6,0.6,5.4,0.8l2.8,0.1c0.5,0,0.9,0.1,1.4,0l1.3,0c1.7-0.1,3.4-0.1,5.2-0.2l5.2-0.6c6.9-1.1,13.7-3.3,20-6.7
					c1.6-0.8,3.1-1.8,4.6-2.8c0.7-0.5,1.5-0.9,2.2-1.5l2.1-1.7l2.1-1.7l1.8-1.7l3.6-3.4l1.8-1.7c0.6-0.6,1.1-1.2,1.7-1.8l3.3-3.7
					c2.3-2.4,4.2-5.2,6.2-7.8c2.1-2.6,3.7-5.5,5.5-8.4l1.3-2.1c0.4-0.7,0.8-1.4,1.2-2.2l2.2-4.3l1.1-2.2l1-2.2l2-4.5
					c0.7-1.5,1.2-3.1,1.8-4.6c0.6-1.6,1.2-3.1,1.7-4.7c1-3.2,2-6.5,2.7-9.5l1.2-4.5l0.6-2.2l0.3-1l0.1-0.4l0-0.1l0,0
					c0,0,0.1,0-0.1,0l-1.2-0.4c-0.7-0.2-1.4-0.5-2.1-0.7l-0.9-0.3l-0.8-0.3c-0.6-0.3-0.8-0.3-1.2-0.5c-0.1,0-0.2-0.1-0.2-0.1
					c0,0-0.2,0.1-0.3,0c1.7-1.6,3.4-3.2,5.1-4.8l-1.4-1.4l-0.1-0.1l-0.2-0.1l-0.3-0.3l-0.7-0.6c-0.5-0.4-0.9-0.8-1.5-1.1
					c-2.2-1.4-4.8-2-7.4-2.1l-1.5,0l-1.5,0.8c-0.5,0.2-1,0.5-1.5,0.7l-2.2,1.1l-1,2.3c-4.9,11.4-10.7,22.5-17.9,32.4
					c-3.6,4.8-7.5,9.5-12,13.3c-1,1-2.3,2-3.5,2.9l-1.8,1.4l-1.9,1.3c-1.2,0.9-2.5,1.8-3.8,2.6c-1.3,0.8-2.5,1.6-3.8,2.3
					c-1.5,0.9-3.8,2.1-6.6,3.1c-1.4,0.6-2.9,0.9-4.5,1.2c-0.8,0-1.6,0.2-2.4,0.2c-0.8,0-1.6-0.1-2.3-0.2c-0.3-0.1-0.7-0.1-0.8-0.2
					c-0.1,0-0.2-0.1-0.3-0.1c-0.1-0.1-0.1-0.1-0.2-0.1c-0.1,0-0.1-0.1-0.1-0.1c0,0-0.1,0-0.1-0.1c0,0-0.1-0.1-0.1-0.1
					c0-0.1,0-0.1-0.1-0.2c0,0-0.1-0.3-0.2-0.5l-0.3-0.7l-0.3-0.7c-0.1-0.3-0.1-0.5-0.2-0.8c-0.1-0.6-0.3-1.1-0.4-1.7
					c-0.1-0.6-0.2-1.2-0.2-1.9c-0.2-1.2-0.2-2.6-0.3-4c0-1.4,0.1-2.9,0.1-4.5c0-1.5,0.2-3.1,0.3-4.6c0.1-0.8,0.1-1.6,0.2-2.4
					c0.1-0.8,0.2-1.6,0.4-2.4c0.9-6.4,2.6-13.2,5.1-20c2.4-6.9,5.5-13.6,9.2-20.8c7.2-14.3,14.6-29.1,21.8-43.6
					c-1.8,1.1-3.5,2.1-5.2,3.2l0.7,0l3.2,0l1.7-2.6c2.3-3.5,4.4-7.2,6-11.3c0.4-1.1,0.8-2.1,1.1-3.2c0.3-1.1,0.6-2.2,0.8-3.4
					l0.3-1.8l0.1-1.8l0-0.9l0-0.8l-0.1-1.6c-0.2-4.3-1.2-8.8-3.1-12.9c-0.5-1-1-2-1.6-3c-0.3-0.5-0.6-1-0.9-1.4l-1-1.3
					c-0.7-1-1.3-1.6-2-2.3c-0.6-0.7-1.3-1.4-1.9-2.1c-2.7-2.7-5.5-5.3-8.6-7.5c-0.8-0.5-1.5-1.1-2.3-1.6c-0.7-0.5-1.5-0.9-2.2-1.4
					c-1.5-0.9-3-1.8-4.5-2.6c-0.8-0.4-1.5-0.8-2.3-1.2c-0.4-0.2-0.8-0.4-1.2-0.6l-1.5-0.7c-0.7-0.3-1.3-0.6-2-0.9l-0.5-0.2l-0.2-0.1
					l0,0c0,0,0,0.1,0,0.1L60,67l-0.1,0.5c-0.4,1.3-0.7,2.6-1.1,3.9c0,0.1-0.1,0.2-0.1,0.2l0,0l-0.1,0l-0.1-0.1l-0.3-0.1l-0.6-0.2
					l-1.1-0.4c-0.7-0.2-1.3-0.5-1.7-0.7l-0.1-0.1c0-0.1-0.1-0.2-0.1-0.2c-0.1-0.2-0.1-0.3-0.1-0.5c0,0,0-0.1,0-0.1l0-0.1l0,0l0,0
					c0.4,1.2-3.9-10.5-2-5.6l-0.1,0.3l-0.3,0.7c-0.4,0.9-0.7,1.8-1.1,2.7c-0.2,0.4-0.4,0.9-0.5,1.3L50.3,69c0,0,0,0.2-0.1,0.1
					L49.9,69l-1.3-0.4c-0.6,2-1.2,4-1.8,6c-0.7,2.3-1,2.9-1.4,4c-0.8,2.1-1.6,4-2.4,5.8c-1.6,3.7-3,7-4.2,9.8
					c-0.6,1.3-1.1,2.7-1.7,4c-2.5,6-5.2,12.3-8,18.7c-1.3,3.2-2.8,6.4-4,9.7c-1.2,3.3-2.4,6.7-3.6,10c-1.2,3.3-2.4,6.6-3.5,9.8
					c-1,3.3-1.9,6.5-2.9,9.6c-0.9,3.1-1.8,6.2-2.7,9.1c-0.4,1.5-0.9,2.9-1.2,4.3c-0.3,1.4-0.7,2.9-1,4.2c-0.5,2.5-1.1,5.1-1.6,7.6
					c-0.4,2.6-0.7,5.2-1.1,7.8c-0.2,1.3-0.4,2.6-0.5,3.9l-0.3,3.9c-0.2,2.6-0.4,5.2-0.5,7.8c0.3-2.4,0.7-4.7,1.1-6.9
					c0.4-2.2,0.6-4.3,1.1-6.2c-0.4,2.6-0.6,5.3-0.9,7.8c-0.3,2.5-0.6,5-0.6,7.2c-0.1,2.2-0.1,4.3-0.1,6c0,1.7,0,3.2,0.1,4.2
					c0.7,11.4,2,13.7,2,12.2c0.1-0.4,0-1,0-1.8c0-0.8,0-1.7,0.1-2.8c0-1,0-2.2,0.1-3.3c0.1-1.1,0.2-2.3,0.3-3.3
					c0.1-3.1,0.5-2.5,0.7-2.4c0.3,0.1,0.6-0.2,1-5c-0.1,1.7-0.1,3.2-0.2,4.6c0,1.4,0.1,2.7,0.1,4c0,2.6,0.3,5.1,0.6,8.5
					c0.1,0.2,0-1-0.1-2.9c-0.1-0.9-0.2-2-0.3-3.2c0-1.2-0.1-2.4-0.1-3.6c-0.1-2.4,0-4.7,0.1-6c0.1-1.4,0.2-1.8,0.3-0.7
					c-0.5,6.6,0.1,14,1.4,20.6c0-0.6-0.1-2.4-0.5-4.6c-0.1-1.1-0.2-2.4-0.3-3.7c-0.1-0.7-0.1-1.3-0.2-2c0-0.7,0-1.4,0-2.1
					c0-1.4-0.1-2.7-0.1-3.9c0.1-1.2,0.1-2.4,0.2-3.3c0.1-1.9,0.2-3,0.4-2.7c0,0.9-0.1,2.6-0.2,4.6c0,0.5-0.1,1-0.1,1.5
					c0,0.5,0,1.1,0,1.6c0,1.1,0,2.2,0,3.4c0,2.2,0.3,4.4,0.4,6c0.2,1.7,0.5,2.8,0.7,3.1c0.1,0.1-0.2-1.5-0.4-3.5
					c-0.1-2.1-0.5-4.6-0.4-6.3c0.4,10.4,3.1,18,4.4,20.7c0.3,0.7,0.5,1.1,0.7,1.1c0.1,0.1,0.1-0.2,0-0.8c-0.2-1.2-1-3.8-1.8-8.3
					c0.7,3.1,1.6,6.8,3.1,10.3c1.3,3.6,3.5,6.8,5.4,9.4c0,0,0,0,0,0c-0.9-1.4-2.3-3.1-3.2-5.1c-1.1-1.9-1.9-3.9-2.5-5.3
					c0.8,1.7,1.4,3.5,2.4,5c0.5,0.8,0.8,1.7,1.4,2.4l1.6,2.2c-0.3-0.5-0.6-1.1-0.9-1.7c-0.8-1.1-1.4-2.4-2-3.6
					c-0.7-1.2-1.2-2.5-1.8-3.8l0.7,1.7c0.2,0.6,0.5,1.1,0.8,1.6c0.6,1,1.2,2.1,1.8,3.2c-0.4-0.8-0.7-1.8-1.2-2.7
					c-0.2-0.5-0.4-1-0.6-1.5c-0.2-0.5-0.3-1.1-0.5-1.6c-3.2-8.1-3.4-16.7-3.7-21.5c-0.1-1.2-0.1-2.5-0.1-3.7c0-1.2-0.1-2.4,0-3.7
					l0.3-7.5l0.1-1.9l0.2-1.9l0.4-3.7c0.3-2.5,0.5-5,1-7.5l1.4-7.4c0.2-1.2,0.6-2.5,0.9-3.7l0.9-3.7c1.1-4.9,2.9-9.8,4.4-14.7
					l2.4-7.4c0.8-2.5,1.5-4.9,2.5-7.3l5.4-14.4c0.5-1.2,0.9-2.4,1.4-3.6l1.5-3.6l3.1-7.2C44.2,114.1,46.2,109.3,48.2,104.5z"/>
			</g>
		</g>
	</g>
	<g>
		<path class="st0" d="M252.4,252.5c-3.9,7.9-8,12.7-12.1,14.4c-4.2,1.7-7.3,2.6-9.2,2.6c-11.8,0-19.8-4.4-24.1-13.2
			c-4.2-8.9-6.3-20.7-6.4-35.4c0-10.3,0.9-21.1,2.9-32.2c1.9-11.1,4.6-22.1,8-32.9c-8.3,18.3-16.6,36.5-25,54.8
			c-8.3,18.3-14.7,32.1-19.1,41.4c-2.9,6.9-6.7,11.5-11.4,13.7c-4.7,2.2-8,3.3-10,3.4c-11.3,0-19.1-3.9-23.3-11.8
			c-4.2-7.9-6.3-19.4-6.4-34.7c-0.1-18.7,2.5-37.6,7.6-56.5c5.1-19,11-36.2,17.6-51.8c6.6-15.5,12.6-28.2,18-38.1
			c5.4-9.9,8.6-14.8,9.6-14.8c3.9,0,8.4,1,13.3,2.9c4.9,2,9.9,4.2,14.8,6.6c5.4,2.5,11.1,5.4,17,8.8c-3.9,7.9-9.4,17.9-16.5,30
			c-7.1,12.1-14.1,25-20.9,38.9c-6.9,13.8-13,27.9-18.3,42.2c-5.4,14.3-8,27.6-8,39.9c23-42.4,42.4-76,58.1-100.7
			c15.7-24.7,26.5-40,32.4-45.9l-0.7,0c2.9-4.9,5.6-9.9,8.1-14.8c2.4-3.9,4.5-8,6.2-12.2c1.7-4.2,3-7.5,4-10c0.5,0,2.6,1.1,6.3,3.3
			c3.7,2.2,7.5,5.1,11.5,8.8c3.9,3.7,7.7,7.6,11.1,11.8c3.5,4.2,5.2,8.5,5.2,12.9c0,2.5-0.2,5.1-0.7,7.8c-0.5,2.7-2.7,7.5-6.6,14.4
			l-0.7,0c-4.4,8.4-9.4,17.5-15.1,27.4c-5.6,9.9-11,20.1-16.2,30.7c-5.1,10.6-9.4,21.7-12.8,33.3c-3.4,11.6-5.1,22.8-5.1,33.6
			c20.6-37.5,37.6-66.2,51.1-86.2c13.5-20,24.5-35.5,33.1-46.6c8.6-11.1,15.2-19.9,19.9-26.3c4.7-6.4,8.2-14.8,10.6-25.2
			c7.4,4.4,13.1,8.3,17,11.8c3.9,3.4,7.7,7.3,11.1,11.4c3.5,4.2,5.2,8.2,5.2,12.2c0,2,0,3.9,0,5.9c0,2-0.2,4.2-0.7,6.7
			c-3.9,7.9-8.9,17.3-15.1,28.1c-6.1,10.9-12.1,22.2-18,34c-5.9,11.8-10.9,23.8-15,35.9c-4.2,12.1-6.2,23.5-6.2,34.4
			c0,5.4,0.6,10,1.9,13.7c1.2,3.7,3.8,5.5,7.8,5.5c6.9,0,15.5-5.1,25.8-15.2c10.3-10.1,20.4-26.5,30.1-49.2l1.5-0.7
			c2,0,3.7,0.7,5.2,2.2l1.5,1.5c0,1-1.6,5.9-4.8,14.8c-3.2,8.9-7.8,18.4-14,28.5c-6.1,10.1-13.5,19.4-22.1,27.8
			c-8.6,8.4-18.3,12.6-29.1,12.6c-9.4,0-18.1-4.6-26.3-14c-8.2-9.3-12.3-22.6-12.3-39.9c0-12.8,1.9-26.6,5.8-41.4
			c3.9-14.8,8.3-28.8,13.2-42.2c-5.4,9.9-11.4,20.8-18,32.9c-6.6,12.1-12.9,23.9-18.7,35.5c-5.9,11.6-11,22.2-15.4,31.8
			C256.1,241,253.4,248.1,252.4,252.5z"/>
		<g>
			<path class="st0" d="M252.4,252.5c-3.9,7.9-8,12.7-12.1,14.4c-4.2,1.7-7.3,2.6-9.2,2.6c-11.8,0-19.8-4.4-24.1-13.2
				c-4.2-8.9-6.3-20.7-6.4-35.4c0-10.3,0.9-21.1,2.9-32.2c1.9-11.1,4.6-22.1,8-32.9c-8.3,18.3-16.6,36.5-25,54.8
				c-8.3,18.3-14.7,32.1-19.1,41.4c-2.9,6.9-6.7,11.5-11.4,13.7c-4.7,2.2-8,3.3-10,3.4c-11.3,0-19.1-3.9-23.3-11.8
				c-4.2-7.9-6.3-19.4-6.4-34.7c-0.1-18.7,2.5-37.6,7.6-56.5c5.1-19,11-36.2,17.6-51.8c6.6-15.5,12.6-28.2,18-38.1
				c5.4-9.9,8.6-14.8,9.6-14.8c3.9,0,8.4,1,13.3,2.9c4.9,2,9.9,4.2,14.8,6.6c5.4,2.5,11.1,5.4,17,8.8c-3.9,7.9-9.4,17.9-16.5,30
				c-7.1,12.1-14.1,25-20.9,38.9c-6.9,13.8-13,27.9-18.3,42.2c-5.4,14.3-8,27.6-8,39.9c23-42.4,42.4-76,58.1-100.7
				c15.7-24.7,26.5-40,32.4-45.9l-0.7,0c2.9-4.9,5.6-9.9,8.1-14.8c2.4-3.9,4.5-8,6.2-12.2c1.7-4.2,3-7.5,4-10c0.5,0,2.6,1.1,6.3,3.3
				c3.7,2.2,7.5,5.1,11.5,8.8c3.9,3.7,7.7,7.6,11.1,11.8c3.5,4.2,5.2,8.5,5.2,12.9c0,2.5-0.2,5.1-0.7,7.8c-0.5,2.7-2.7,7.5-6.6,14.4
				l-0.7,0c-4.4,8.4-9.4,17.5-15.1,27.4c-5.6,9.9-11,20.1-16.2,30.7c-5.1,10.6-9.4,21.7-12.8,33.3c-3.4,11.6-5.1,22.8-5.1,33.6
				c20.6-37.5,37.6-66.2,51.1-86.2c13.5-20,24.5-35.5,33.1-46.6c8.6-11.1,15.2-19.9,19.9-26.3c4.7-6.4,8.2-14.8,10.6-25.2
				c7.4,4.4,13.1,8.3,17,11.8c3.9,3.4,7.7,7.3,11.1,11.4c3.5,4.2,5.2,8.2,5.2,12.2c0,2,0,3.9,0,5.9c0,2-0.2,4.2-0.7,6.7
				c-3.9,7.9-8.9,17.3-15.1,28.1c-6.1,10.9-12.1,22.2-18,34c-5.9,11.8-10.9,23.8-15,35.9c-4.2,12.1-6.2,23.5-6.2,34.4
				c0,5.4,0.6,10,1.9,13.7c1.2,3.7,3.8,5.5,7.8,5.5c6.9,0,15.5-5.1,25.8-15.2c10.3-10.1,20.4-26.5,30.1-49.2l1.5-0.7
				c2,0,3.7,0.7,5.2,2.2l1.5,1.5c0,1-1.6,5.9-4.8,14.8c-3.2,8.9-7.8,18.4-14,28.5c-6.1,10.1-13.5,19.4-22.1,27.8
				c-8.6,8.4-18.3,12.6-29.1,12.6c-9.4,0-18.1-4.6-26.3-14c-8.2-9.3-12.3-22.6-12.3-39.9c0-12.8,1.9-26.6,5.8-41.4
				c3.9-14.8,8.3-28.8,13.2-42.2c-5.4,9.9-11.4,20.8-18,32.9c-6.6,12.1-12.9,23.9-18.7,35.5c-5.9,11.6-11,22.2-15.4,31.8
				C256.1,241,253.4,248.1,252.4,252.5z"/>
			<g>
				<path class="st0" d="M164,82.4c-0.1-0.3-3.5,5.7,1.3-3.9c1-1.9,2-3.7,3-5.5c0.5-0.9,1-1.7,1.5-2.6l0.8-1.2l0.7-1.1
					c0.1-0.2,0.3-0.4,0.5-0.3c0.1,0,0.1,0,0.2,0l0.3,0.1l0.6,0.1l1.2,0.2l1.2,0.3c1.6,0.4,3.3,1.1,4.9,1.7c1.8,0.8,3.5,1.5,5.2,2.3
					c1.7,0.7,3.5,1.6,5.2,2.4c1.7,0.8,3.5,1.7,5.2,2.5l5.1,2.5c0.9,0.4,1.7,0.8,2.5,1.3l1.2,0.7l0.5,0.3l0,0l0.2,0.2l-0.2,0.3
					c-0.8,1.5-1.6,3.1-2.5,4.6c-0.5,0.9-0.9,1.8-1.4,2.7c-0.5,0.9-1,1.8-1.5,2.7c-2,3.6-4.1,7.2-6.2,10.9c-0.3,0.8-0.6,1.6-0.9,2.4
					c-3.4,5.9-6.7,11.8-10.2,17.8c-3.3,6-6.5,12.2-9.8,18.4c-6.3,12.5-12.5,25.4-17.8,38.9c-3.2,7.6-6.2,15.7-8.2,24.1
					c-2,8.4-3.2,17-3.2,25.7l0,26.1l12.5-23c17.2-31.6,34.5-62.8,53.1-93c-0.8,1.1-1.3,1.5,1.4-2.9c4.3-7.1,9.5-15.1,15.3-23.7
					c2.9-4.3,5.9-8.7,9.1-13.2c1.6-2.2,3.3-4.4,4.9-6.6c0.8-1.1,1.7-2.1,2.6-3.2c0.9-1.1,1.7-1.9,2.6-2.9l9.2-10.4l-13.5,0
					c-0.2,0-0.5,0-0.7,0c1.7,3,3.5,6.1,5.2,9.2c1.6-2.9,3.4-5.8,5-8.8c0.8-1.5,1.6-3,2.4-4.5l0.6-1.1l0.3-0.6l0-0.1l0,0.1l-0.1,0.1
					l0.1-0.3l1.3-2.4l1.8-3.2c0.6-1.1,1-2.2,1.6-3.3c0.5-1.1,1-2.2,1.5-3.3c0.5-1.1,0.9-2.1,1.3-3.2c0.1-0.1,0-0.1,0-0.1l0,0l0-0.1
					c0-0.1,0-0.1,0-0.1c0-0.1,0-0.2,0-0.3c0-0.2,0-0.3,0-0.4l0.2-0.4c0.1,0,0.3,0.1,0.4,0.1c0.3,0.1,0.5,0.3,0.7,0.4
					c0.5,0.3,1,0.6,1.5,0.9c0.6,0.4,1.2,0.9,1.8,1.3c1.2,0.8,2.3,1.8,3.5,2.7c1.1,0.9,2.2,1.9,3.3,2.9c1,1,2.1,2.1,3.1,3.1
					c2.1,2,3.9,4.1,5.7,6.2l1.6,1.7c0.4,0.5,0.8,1,1.2,1.6c0.7,1,1.4,2.1,1.8,3.2c0.4,1.1,0.8,2.1,0.9,3.2c0.1,0.3,0.1,0.5,0.1,0.8
					c0,0.3,0.1,0.5,0,0.9c0,0.7-0.1,1.4-0.1,2.1c0,0.7-0.1,1.5-0.2,2.2c-0.1,0.7-0.2,1.5-0.3,2.2c-0.2,0.5-0.3,1-0.5,1.6
					c-0.3,0.7-0.6,1.4-0.8,2.1c-0.6,1.4-1.4,2.9-2.1,4.4c-0.8,1.5-1.6,3-2.5,4.6c1.5-0.9,3.1-1.8,4.8-2.8c-0.2,0-0.5,0-0.7,0l-3.3,0
					l-1.6,3c-5.1,9.5-10.3,18.9-15.5,28.5c-2.6,4.9-5.3,9.8-7.9,14.7c-2.5,5-5,10-7.5,15.1c-4.9,10.4-9.2,21.3-12.5,32.7
					c-3.4,11.5-5.6,23.8-5.6,36.6l0.1,18.5l8.9-16.2c4.1-7.4,8.2-14.8,12.3-22.4c4.1-7.5,8.5-15,12.8-22.5c2.1-3.8,4.4-7.5,6.6-11.3
					c2.3-3.8,4.5-7.5,6.8-11.3c2.3-3.8,4.7-7.5,7.1-11.2c2.4-3.7,4.8-7.5,7.3-11.2c5.1-7.5,10.2-15,15.4-22.6
					c5.4-7.4,10.8-14.9,16.3-22.5c5.6-7.6,11.3-15.2,17.1-22.9l1.1-1.4l1.1-1.6c0.7-1.1,1.4-2.2,2-3.3c0.7-1.1,1.2-2.3,1.8-3.4
					c0.6-1.2,1-2.3,1.6-3.5l1.4-3.6l1-2.9c0.3-1.1,0.6-2.3,0.9-3.5c0-0.1,0.1,0,0.2,0l0.2,0.1l0.5,0.3l1,0.6
					c0.6,0.4,1.3,0.8,1.9,1.2c0.6,0.4,1.1,0.7,1.7,1.1c0.6,0.4,1.2,0.9,1.8,1.3c1.2,0.9,2.5,1.7,3.6,2.7c0.6,0.5,1.2,0.9,1.8,1.4
					c0.6,0.5,1.1,1,1.7,1.6c1.1,1.1,2.3,2.1,3.4,3.2c1.1,1.1,2.2,2.3,3.2,3.5l1.6,1.8c0.6,0.6,1.1,1.2,1.5,1.8
					c1.9,2.3,3.3,5,3.8,7.6c0.1,0.7,0.2,1.3,0.2,2l0,2.6l0,2.6c0,0.9-0.1,1.6-0.1,2.4c0,0.4,0,0.8-0.1,1.2l-0.2,1.2l-0.2,1.1
					c0,0.3,0,0.5-0.2,0.7c-0.7,1.5-1.5,2.9-2.2,4.4c-1.6,3.1-3.1,6.2-4.8,9.2c-8.3,15.5-16.9,31.2-24.5,47c-3.8,8-7.5,16-10.6,24.1
					c-1.6,4-3,8.2-4.5,12.3c-0.7,2-1.3,4.2-1.9,6.2c-0.6,2.1-1.3,4.1-1.7,6.3c-0.3,1.3-0.6,2.6-0.9,3.9c-0.3,1.3-0.6,2.6-0.8,4
					c-0.3,2.7-0.8,5.4-1,8.2c-0.1,2.8-0.3,5.6-0.3,8.4c0.1,1.4,0,2.9,0.2,4.3l0.2,2.2c0.1,0.7,0.2,1.5,0.4,2.2
					c0.2,1.5,0.7,2.9,1.1,4.4c0.5,1.5,1.2,3.1,2.5,4.5c1.3,1.3,3.1,2.2,4.8,2.5c0.9,0.2,1.7,0.2,2.5,0.2l2.4-0.2
					c0.8-0.1,1.6-0.3,2.3-0.5l1.2-0.3c0.4-0.1,0.7-0.3,1.1-0.4l2.2-0.9l2-1.1c2.7-1.4,5.2-3.2,7.6-5c4.7-3.7,9-7.8,13-12.4l2.8-3.5
					c0.9-1.2,1.8-2.4,2.6-3.6c1.8-2.4,3.3-4.9,4.9-7.3c6.2-9.9,11.2-20.3,15.6-30.4c-0.3,0.4-0.7,0.7-1,1.1c0.5-0.3,1-0.5,1.5-0.7
					c-0.3,0.1-0.6,0.2-0.9,0.2c0.9,0.1,1.9,0.2,2.6,0.8c0.2,0.1,0.4,0.3,0.6,0.4c0.2,0.2,0.4,0.3,0.6,0.5c0.5,0.5,0.9,0.9,1.4,1.4
					c0.2-0.5,0.4-1.1,0.6-1.5l-1.2,0l0,0l0,0.1l-0.1,0.2l-0.1,0.4l0,0.2l-0.1,0.3l-0.2,0.6c-0.2,0.7-0.5,1.5-0.7,2.2
					c-0.5,1.5-1,3-1.5,4.4c-1,2.9-2,5.8-3.1,8.5c1-1.6-0.6,4.2-4.7,13.1c-4.1,8.9-10.8,20.7-19,30.8c-1,1.3-2,2.5-3.1,3.8
					c-1.1,1.2-2.2,2.4-3.2,3.5c-1.1,1.1-2.1,2.3-3.1,3.4c-1.1,1-2.1,2.1-3.2,3c-1.1,0.9-2.2,1.8-3.3,2.6c-1.1,0.7-2.2,1.5-3.3,2.2
					c-1.1,0.6-2.2,1.2-3.1,1.7c-1,0.5-2,0.9-2.9,1.3c-0.5,0.2-0.9,0.4-1.3,0.5c-0.4,0.1-0.9,0.3-1.2,0.4c-0.8,0.3-1.5,0.5-2.1,0.7
					c-1.3,0.3-2.2,0.5-2.7,0.7c-1,0.3-0.2,0.4,2.9,0.1c-1,0.2-2.1,0.3-3.2,0.5c-1.1,0.2-2.2,0.2-3.3,0.3c-1.1,0.1-2.3,0.1-3.4,0
					c-1.2-0.1-2.4-0.1-3.5-0.4c-4.7-0.8-9.3-2.8-13.2-5.5l-2.9-2.2l-2.7-2.4c-0.9-0.8-1.7-1.7-2.5-2.5l-1.2-1.3
					c-0.4-0.4-0.7-0.9-1.1-1.4c-3.1-3.6-5.1-7.8-6.9-11.7c-3.2-8-4.2-15.7-4.7-21.2c-0.1-2.8-0.3-5.1-0.4-6.8c0-1.7,0-2.7,0-3.1
					c-0.2-1.6-0.5-4.1-0.5-7.7c0.1-1.8,0.1-3.9,0.3-6.4c0.1-1.2,0.1-2.6,0.3-4c0.2-1.4,0.4-2.9,0.6-4.5c0.2-1.6,0.4-3.3,0.7-5.2
					c0.3-1.8,0.7-3.7,1.1-5.7c0.4-2,0.8-4.2,1.3-6.4c0.6-2.2,1.2-4.5,1.8-7c0.6-2.4,1.3-5,2-7.7c0.4-1.3,0.7-2.7,1.1-4.1
					c0.4-1.4,0.7-2.9,1.2-4.3c1.9-5.8,3.9-12.2,6.2-19.2c3,1.4,6.1,2.7,9.3,4.2c-4.9,9.3-10.8,20.3-17.4,32.7c-4,7.5-8.5,16-13,24.8
					c-1.2,2.2-2.3,4.4-3.5,6.6c-1.2,2.2-2.4,4.4-3.4,6.6c-2.2,4.4-4.3,8.8-6.4,13c-4.1,8.4-8.1,16.2-10.8,22.6
					c-2.8,6.4-4.4,11.4-4.9,13.8c-0.9,4.7-0.7,4.3,0,1.4c0.1-0.4,0.2-0.8,0.3-1.2c0.1-0.4,0.2-0.8,0.4-1.2c0.3-0.9,0.5-1.7,0.9-2.8
					c0.4-1.1,0.8-2.2,1.3-3.4c0.5-1.2,1-2.4,1.5-3.6c2.1-4.9,4.5-9.8,5.9-12.4c1.4-2.6,1.7-2.9-0.3,1.4c4-8.2,8-16.5,12-24.7
					c1.9-4.1,4.1-8.2,6.3-12.2c2.1-4,4.3-8.1,6.4-12.1c8.4-16.2,17.4-32.2,26.2-48.3c-4.2-1.9-8.4-3.8-12.6-5.7
					c-1.9,5.5-3.8,11.1-5.6,16.6l-1.4,4.1l-1.2,4.2l-2.4,8.4l-2.4,8.4c-0.8,2.8-1.4,5.8-2.1,8.6c-0.3,1.5-0.7,2.9-1,4.4l-0.8,4.4
					c-0.5,2.9-1.1,5.9-1.3,8.9l-0.5,4.5c-0.1,1.5-0.4,3-0.4,4.5l-0.3,9c0.1,6.1,0.5,12.3,1.8,18.5c1.3,6.2,3.4,12.4,6.7,18.1
					l1.3,2.1c0.4,0.7,0.9,1.4,1.4,2.1c1,1.3,2,2.7,3.1,3.9c1.1,1.2,2.2,2.3,3.3,3.5c1.2,1.1,2.4,2.2,3.7,3.3
					c5.1,4.2,11.5,7.6,18.6,8.7l1.3,0.2l1.3,0.1l2.7,0.2c1.7,0,3.4-0.1,5-0.2c1.7-0.3,3.3-0.5,5-0.8c1.6-0.4,3.3-0.8,4.9-1.4
					c6.4-2.2,12.2-5.8,17-10.1c2.5-2.2,4.4-4.3,6.5-6.5c2.1-2.1,4-4.4,6-6.7c1-1.2,2-2.3,2.9-3.5l2.7-3.6c0.9-1.2,1.8-2.4,2.7-3.6
					l2.5-3.8l2.4-3.8l2.2-3.8l2.2-3.8l2.1-4c0.7-1.3,1.4-2.6,2-4l1.9-4.1c1.3-2.7,2.3-5.5,3.5-8.3c0.6-1.4,1-2.8,1.5-4.1l1.4-4.1
					l1.4-4.2l0.7-2.3l0.2-0.6c0-0.1,0.1-0.3,0.1-0.5l0.1-0.6c0.1-0.8,0.3-1.6,0.3-2.3l0.2-2.6l-2.3-2.2l-1.4-1.4l-0.1-0.1l-0.2-0.1
					l-0.3-0.3l-0.7-0.6c-0.5-0.4-0.9-0.8-1.5-1.1c-2.2-1.4-4.9-2.1-7.4-2.1l-1.6,0l-1.5,0.8l-1.5,0.7l-2.2,1.1l-1,2.3
					c-5.1,11.9-10.9,23.5-17.9,33.9c-3.6,5.2-7.4,9.9-11.8,14.1c-4.5,4.3-9.3,8.2-14.1,10.6c-0.6,0.3-1.2,0.5-1.7,0.7
					c-0.3,0.1-0.6,0.3-0.9,0.3l-0.8,0.2l-0.8,0.2c-0.3,0.1-0.5,0-0.7,0.1c-0.4,0-1,0.2-1.3,0.1c-0.7-0.1-0.6-0.1-0.6-0.1
					c0,0-0.1,0-0.5-1.1c-0.8-2.4-1.1-5.2-1.3-8.1c-0.2-2.9,0.1-6,0.2-9.1c0-1.5,0.3-3.1,0.5-4.6l0.6-4.6c0.3-1.5,0.7-3,1-4.6
					c0.4-1.5,0.6-3.1,1.1-4.6l1.4-4.5c0.5-1.5,0.8-3,1.4-4.5c1.1-3,2.2-6.1,3.4-9.2c2.4-6.1,4.9-12.1,7.7-18
					c1.4-2.9,2.7-5.9,4.3-8.8l4.5-8.8c2.9-5.9,6.2-11.7,9.4-17.5c3.2-5.9,6.5-11.8,9.7-17.7c1.7-2.9,3.2-6,4.8-9l2.3-4.5l1.6-3
					l0.1-0.3l0-0.3l0.1-0.6l0.2-1.2l0.2-1.5l0.2-1.4l0.1-1.6l0.1-1.6l0-0.8l0-0.6l0-5c0-0.2,0-0.6,0-0.9l-0.1-0.9
					c0-0.6-0.1-1.2-0.2-1.8c-0.1-0.6-0.2-1.2-0.4-1.8c-0.2-0.6-0.3-1.2-0.5-1.7c-0.7-2.2-1.8-4.2-2.9-6c-0.6-0.9-1.2-1.7-1.8-2.5
					c-0.3-0.4-0.6-0.8-0.9-1.2l-0.9-1l-3.6-4c-1.2-1.4-2.5-2.6-3.8-3.8c-1.3-1.2-2.6-2.5-4-3.7c-2.9-2.4-5.8-4.5-8.7-6.5l-1.6-1.1
					c-0.7-0.5-1.4-0.9-2.1-1.4l-4.2-2.6l-8.4-5.2c-0.8,3.1-1.5,6.1-2.4,9.3l-1.2,4.7c-0.2,0.8-0.4,1.5-0.7,2.3l-0.5,1.4
					c-0.9,2.8-2.1,5.4-3.4,8c-0.3,0.6-0.6,1.3-1,1.9l-1.1,1.8c-0.8,1.2-1.4,2.2-2.5,3.6c-1.9,2.6-3.9,5.1-5.8,7.7
					c-1.9,2.5-4.1,5.6-6.8,9.1c-2.6,3.6-5.6,7.5-9,12.1c-3.3,4.6-7,9.6-11,15.1c-3.9,5.5-7.9,11.5-12.3,17.9
					c-2.2,3.2-4.4,6.5-6.8,9.9c-2.2,3.5-4.6,7-6.9,10.7c-1.2,1.8-2.4,3.7-3.6,5.6c-1.2,1.9-2.3,3.8-3.5,5.8
					c-2.4,3.9-4.8,7.9-7.2,11.9c-2.5,4-4.8,8.3-7.3,12.5c-2.5,4.3-5,8.6-7.5,13.1c-5,8.9-10.1,18.2-15.4,27.7c3.8,1,7.7,2,11.6,3
					c0-9.8,1.5-19.9,4.3-29.9c2.8-10.2,6.6-20.4,11.2-30.5c0.6-1.3,1.1-2.5,1.7-3.8c0.6-1.3,1.3-2.5,1.9-3.8
					c1.3-2.5,2.6-5.1,3.8-7.6c0.6-1.3,1.3-2.6,1.9-3.8c0.7-1.3,1.4-2.5,2.1-3.8c1.4-2.5,2.8-5.1,4.2-7.6
					c5.7-10.3,11.4-20.8,17.2-31.4c-1.7,1.1-3.5,2.1-5.3,3.2c0.2,0,0.5,0,0.7,0l3.6,0l1.7-3.1l1.8-3.3l0.9-1.6l0.9-1.7l0.9-1.7
					l0.4-0.9l0.4-1l0.8-1.9c0.1-0.3,0.3-0.6,0.4-1l0.4-1.2l0.3-1.2c0.1-0.4,0.2-0.9,0.3-1.2l0.3-2l0.3-2c0.1-0.7,0.1-1.4,0.1-2.1
					l0.1-2.1c0-0.7-0.1-1.6-0.1-2.4c-0.1-0.8-0.2-1.6-0.4-2.4c-0.2-0.8-0.4-1.6-0.6-2.4c-1-3.1-2.5-5.8-4.2-8.2l-1.3-1.7l-1.3-1.4
					l-2.5-2.9c-1.6-2-3.5-3.7-5.3-5.5c-0.9-0.9-1.8-1.8-2.7-2.7l-2.9-2.6l-3.1-2.5l-3.3-2.4L269,46l-1.2-0.8l-1.5-0.9
					c-2-1.1-4-2.3-5.9-2.9l-2.7-0.5l-1.3-0.2c-0.3-0.1-0.4,0.1-0.5,0.3l-0.4,0.5l-1.7,2.2c-0.5,0.8-1.2,1.3-1.5,2.5l-2.4,6
					c-0.5,1.1-0.9,2.3-1.4,3.3l-1.4,3.1l-0.7,1.6c-0.2,0.5-0.6,1-0.8,1.5l-1.7,3l-1.1,1.9l-0.8,1.6c-1.1,2.1-2.2,4.3-3.4,6.4L235,81
					l-5.2,9.1l10.3,0l0.7,0l-4.2-10.2c-1.4,1.5-2.9,3.1-4,4.6l-1.9,2.3L229,89c-1.2,1.5-2.3,3-3.4,4.6c-1.1,1.5-2.2,3.1-3.3,4.6
					c-4.3,6.1-8.4,12.3-12.4,18.5c-2,3.1-4,6.2-6,9.3c-1.9,3.1-3.9,6.3-5.8,9.4c-3.9,6.3-7.7,12.5-11.4,18.7
					c-14.9,25-28.5,49.8-41.6,73.7c3.8,1,7.5,1.9,11.1,2.8c0-11,2.3-21.8,5.6-32.1c1.7-5.1,3.8-10.2,5.9-15.3c1-2.5,2-5,3-7.5
					c0.5-1.2,1-2.5,1.5-3.7c0.6-1.2,1.1-2.4,1.7-3.6c2.2-4.8,4.4-9.5,6.6-14.2c0.6-1.2,1.1-2.3,1.6-3.5c0.6-1.1,1.2-2.3,1.8-3.4
					c1.2-2.3,2.3-4.5,3.5-6.7c4.5-8.9,9.3-17.2,13.8-25.3c2.3-4.1,4.6-8,6.8-11.9c2.2-3.9,4.4-7.7,6.4-11.5c1.3-2.5,2.6-5,3.9-7.4
					c0.9-1.7,1.8-3.4,2.7-5.1l0.7-1.3l0.3-0.6c0-0.1,0.1-0.2,0.1-0.3l-0.3-0.2c-0.8-0.5-1.6-0.9-2.5-1.4c-3.1-1.7-6.1-3.4-9.1-5
					c-1.7-1-3.5-1.8-5.2-2.7c-7-3.4-13.4-6.5-19.7-9c-0.7-0.3-1.6-0.6-2.5-0.9c-0.8-0.3-1.7-0.6-2.5-0.9c-0.9-0.2-1.7-0.5-2.6-0.7
					c-0.4-0.1-0.9-0.2-1.3-0.3c-0.4-0.1-0.9-0.2-1.3-0.2c-0.4-0.1-0.9-0.1-1.3-0.2c-0.6-0.1-1.2-0.2-1.9-0.2
					c-1.3,0.1-2.6,0.1-3.9,0.2c-1.3-0.1-2.5,0.5-3.4,1.3c-0.9,0.8-1.8,1.8-2.5,2.8c-0.3,0.4-0.6,0.9-0.9,1.3l-0.6,0.9l-1,1.6
					l-1.8,3.1c-1.2,2-2.3,4.1-3.4,6.1c-2.4,4.7-4.8,9.4-7.2,14.2c-0.6,1.2-1.2,2.4-1.8,3.6c-0.5,1.2-1.1,2.4-1.6,3.7
					c-1.1,2.5-2.2,4.9-3.3,7.4c-2.2,5-4.5,9.9-6.5,15.1c-1,2.6-2.1,5.2-3.1,7.7c-0.9,2.6-1.9,5.2-2.8,7.9c-2,5.2-3.5,10.6-5.3,15.9
					c-1.7,5.4-3.1,10.8-4.7,16.2l-2,8.3l-1,4.1l-0.5,2.1c-0.1,0.7-0.2,1.4-0.4,2.1c-0.5,2.8-0.9,5.6-1.4,8.4l-0.7,4.2l-0.4,4.2
					c-0.3,2.8-0.5,5.6-0.8,8.4c-0.1,0.7-0.1,1.4-0.2,2.1l-0.1,2.1c0,1.4-0.1,2.8-0.1,4.2c-0.1,2.8-0.1,5.6-0.2,8.3
					c0.1,2.8,0.1,5.6,0.3,8.4c0.4,5.6,1,11.2,2.4,16.7c0.4,1.4,0.8,2.8,1.2,4.2c0.5,1.4,1,2.7,1.5,4.1c0.6,1.4,1.2,2.7,2,4l1.3,2
					l0.7,1c0.2,0.3,0.5,0.6,0.8,0.9l1.6,1.8c0.5,0.6,1.2,1.1,1.8,1.6c0.6,0.5,1.2,1.1,1.9,1.5l2.1,1.2l1,0.6
					c0.3,0.2,0.7,0.3,1.1,0.5l2.2,0.9c0.7,0.3,1.4,0.5,2.2,0.7l2.2,0.6c1.4,0.3,2.8,0.4,4.3,0.7c1.4,0.2,2.8,0.1,4.1,0.2l1,0
					c0.5,0,1-0.1,1.5-0.1c0.5-0.1,1-0.1,1.5-0.2l1.1-0.3c0.7-0.2,1.5-0.4,2.1-0.7l1.9-0.7c1.3-0.5,2.4-1,3.5-1.6
					c0.3-0.1,0.5-0.2,0.9-0.4l1-0.6l1-0.6l0.9-0.7c2.5-1.8,4.5-3.9,6.1-6.1c1.6-2.2,2.9-4.5,3.9-6.8c0.9-2.1,1.9-4.1,2.8-6.1
					c6.5-14.6,13-29.2,19.6-44c6.5-14.8,13-29.6,19.5-44.4c-6.5,13.5-12.5,26.1-17.7,37c6.6-14.4,13.2-28.9,18.8-41.2
					c-2.2-0.9-4.3-1.7-6.4-2.5c-1,3.6-1.9,7-2.8,10.2c-0.8,3.2-1.8,6.2-2.3,9c-1.1,5.6-2,10.2-2.6,13.4c-2.9,17.5-2.6,28.5-2.5,34.3
					c0.3,5.8,0.6,6.6,0.7,4.3c0.1-1.2,0.1-3.1,0.2-5.5c0.2-2.4,0.3-5.4,0.6-8.6c0.3-3.2,0.6-6.7,1.2-10.2c0.3-1.8,0.5-3.5,0.8-5.3
					c0.3-1.7,0.7-3.4,1-5.1c0.4-2.4,0.8-4.1,1.1-5.2c0.3-1.2,0.5-1.8,0.7-2.2c0.3-0.7,0.3-0.2,0.4,0c0.1,0.2,0.3,0,0.9-2
					c0.3-1,0.7-2.5,1.2-4.7c0.5-2.2,1.1-5,2.3-8.6c-0.4,1.3-0.7,2.6-1.1,3.8c-0.3,1.3-0.5,2.5-0.8,3.7c-0.5,2.4-1,4.6-1.4,6.8
					c-0.5,2.2-0.9,4.3-1.3,6.3c-0.3,2.1-0.6,4.1-0.9,6.1c-1.1,8.1-1.9,16.3-1.9,27.2c0.1,0.3,0.1-0.5,0.1-2.1c0-1.6,0.1-4.1,0.2-7.1
					c0.4-5.9,0.9-13.9,2.2-21.4c0.1-0.9,0.3-1.9,0.4-2.8c0.2-0.9,0.4-1.8,0.6-2.7c0.4-1.8,0.7-3.5,1.1-5.1c0.7-3.2,1.3-6.1,1.7-8.2
					c1.1-4.2,1.7-5.6,0.8-2c-0.4,1.3-0.6,2.5-0.9,3.8c-0.3,1.3-0.6,2.6-0.8,3.9c-0.6,2.6-1.1,5.3-1.7,8c-1.1,5.4-1.8,10.9-2.3,16.5
					c-1.1,11.1-1.2,22.5,0.2,33.2c-0.1-0.9-0.2-2.8-0.4-5.3c-0.1-1.3-0.1-2.7-0.2-4.3c-0.1-1.6,0-3.3-0.1-5.1c0-7.3,0.6-16.4,1.7-25
					c0.3-2.2,0.7-4.3,1-6.4c0.3-2.1,0.8-4.1,1.2-6c0.8-3.9,1.6-7.4,2.2-10.3c0.3-1.5,0.7-2.8,1-3.9c0.3-1.1,0.6-2.1,0.8-2.8
					c0.5-1.5,0.7-2.1,0.7-1.7c-0.4,1.4-0.9,3.4-1.6,5.8c-0.4,1.2-0.6,2.5-0.9,3.9c-0.3,1.4-0.6,2.9-1,4.4c-0.7,3.1-1.4,6.4-2.1,9.9
					c-0.5,3.5-1.3,7.1-1.6,10.6c-0.2,1.8-0.4,3.5-0.6,5.3c-0.1,1.7-0.2,3.4-0.4,5.1c-0.1,0.8-0.1,1.6-0.2,2.4c0,0.8,0,1.6-0.1,2.3
					c0,1.5-0.1,3-0.1,4.3c0,2.7,0.1,5,0.2,6.8c0.2,1.8,0.3,3,0.4,3.5c0,0.2,0-1-0.1-3.1c-0.1-1,0-2.3-0.1-3.7c0-0.7,0-1.5,0-2.2
					c0-0.8,0-1.6,0.1-2.4c0-1.7,0.1-3.4,0.1-5.2c0.1-1.8,0.2-3.6,0.4-5.3c0.1-0.9,0.1-1.8,0.2-2.6c0.1-0.9,0.2-1.7,0.3-2.5
					c0.2-1.6,0.4-3.1,0.5-4.5c-2,16.5-1.8,31.5,0.6,42.9c1.1,5.7,2.8,10.5,4.7,14.2c0.9,1.8,1.9,3.2,2.9,4.3c0.5,0.6,1,1,1.5,1.5
					c0.5,0.4,1,0.8,1.4,1.1c1.8,1.2,3,1.7,3.3,1.7c0.2,0,0.1,0-0.2-0.2c-0.3-0.2-0.8-0.5-1.5-1c-1.4-1-3.7-2.7-5.7-6.2
					c-0.5-0.9-1-1.8-1.4-3c-0.2-0.6-0.5-1.2-0.7-1.8c-0.2-0.6-0.4-1.3-0.7-2c-0.9-2.7-1.6-5.9-2.3-9.5c0.3,1.2,0.5,2.5,0.8,3.8
					c0.3,1.3,0.7,2.6,1,3.9c0.5,1.3,0.9,2.6,1.4,3.9c0.6,1.2,1.1,2.7,1.7,3.8c1.2,2.3,2.9,4.4,5,5.9c1,0.8,2.2,1.4,3.4,2
					c1.2,0.5,2.6,1,3.9,1.3c0.7,0.2,1.4,0.3,2.1,0.4c0.7,0.1,1.4,0.2,2.2,0.3c0.7,0.1,1.5,0.1,2.2,0.1l1.1,0c0.3,0,0.5-0.1,0.8-0.1
					c1.1-0.1,2.5-0.5,3.9-1c0.7-0.2,1.4-0.5,2.1-0.8l1.1-0.4l0.7-0.4c2-1,3.8-3.1,5.4-5.3c1.6-2.2,2.9-4.7,4.1-7.1
					c0,0-0.1,0.1-0.1,0.1c-1.2,2.4-2.8,5.1-4.7,7.7c-0.2,0.3-0.5,0.6-0.7,0.9l-0.8,0.9c-0.5,0.6-1.1,1-1.6,1.6
					c-0.3,0.2-0.6,0.4-0.9,0.6l-0.4,0.3l-0.4,0.2c-0.5,0.3-1.4,0.6-2.2,0.9c-0.8,0.3-1.7,0.6-2.5,0.9c-0.8,0.3-1.6,0.4-2.3,0.6
					c-0.4,0.1-0.7,0.1-0.9,0.1l-0.4,0.1c-0.1,0-0.4,0-0.6,0c-0.8,0-1.6,0-2.4-0.1c-3.1-0.2-5.8-0.9-7.8-1.7c2.5,1,5.3,1.5,8.2,1.7
					c0.7,0.1,1.5,0,2.2,0.1c0.4,0,0.6,0,0.9-0.1c0.3,0,0.4,0,0.8-0.1c1.2-0.2,2.6-0.7,4-1.2l2.1-0.8c0.4-0.1,0.6-0.3,0.8-0.4
					c0.2-0.1,0.5-0.2,0.7-0.4c0.5-0.4,1-0.6,1.4-1.1l0.7-0.6c0.2-0.2,0.5-0.5,0.7-0.7c1.8-2,3.5-4.5,4.9-7.1
					c-0.5,0.8-1.1,1.6-1.6,2.5c-0.6,0.8-1.2,1.7-1.9,2.5c-1.3,1.7-2.7,3.1-4.1,4.1c-0.3,0.3-0.7,0.4-1,0.6c-0.3,0.2-0.8,0.4-1.4,0.6
					l-1.6,0.6c-0.5,0.2-1,0.3-1.5,0.5c-0.5,0.2-1,0.3-1.5,0.4l-0.7,0.2l-0.4,0.1l-0.3,0c-0.5,0.1-1.8,0.1-2.9,0
					c-2.2-0.1-4.3-0.4-6.4-1c1.7,0.5,3.6,0.8,5.4,0.9c0.9,0.1,1.9,0.1,2.9,0.1c0.3,0,0.4,0,0.6,0l0.4,0l0.2,0l0.3-0.1l0.6-0.1
					c1.7-0.4,3.6-1.1,5.4-1.8l0.3-0.1l0.2-0.1l0.4-0.2c0.3-0.1,0.6-0.4,0.9-0.6l0.5-0.3l0.5-0.4c0.3-0.3,0.6-0.5,0.9-0.9
					c-0.5,0.5-1,0.8-1.5,1.2l-0.7,0.5l-0.4,0.2l-0.4,0.2c-0.3,0.1-0.4,0.2-0.8,0.3c-0.4,0.1-0.8,0.3-1.2,0.4
					c-0.8,0.3-1.6,0.6-2.3,0.8c-0.4,0.1-0.8,0.2-1.2,0.3c-0.4,0.1-0.7,0.1-1.1,0.2c-0.3,0.1-0.8,0.2-1,0.1c-0.3,0-0.4,0-0.8,0
					c-1.7-0.1-3.4-0.2-5.1-0.5c-1.6-0.3-3.1-0.7-4.5-1.2c-1.4-0.6-2.7-1.2-3.8-2c-2.3-1.6-4-3.8-5.3-6.4c-1.3-2.8-2.4-5.9-3.1-9
					c-0.8-3.1-1.3-6.2-1.7-9.3c-0.7-6.1-0.8-12-0.7-17.3c0.1-5.3,0.5-10,0.8-14c0.8-8,2.1-15.9,3.9-23.8c1.4-8,4-15.7,6.1-23.5
					l-11.7-4.5c-12.1,26.4-24.1,52.8-36.4,79.2l-9,19.5c-1.4,2.7-3.1,5-4.9,6.5c-0.2,0.2-0.5,0.3-0.7,0.5c-0.2,0.2-0.5,0.4-0.7,0.5
					c-0.2,0.1-0.5,0.3-0.7,0.4c-0.3,0.2-0.7,0.3-1.1,0.5c-0.7,0.3-1.5,0.7-2.2,1c-0.7,0.3-1.5,0.6-2.1,0.8l-0.9,0.2l-0.4,0.1
					c-0.1,0-0.1,0-0.2,0c-0.1,0-0.1,0-0.1,0l0,0c0-0.1,0,0.1,0,0.3l0,0.4l0,0.4c0,1.3,0-1.3,0-1.1l-0.1,0l-1.2-0.1
					c-0.8,0-1.6,0-2.3-0.1l-2.2-0.3c-2.8-0.5-5.4-1.5-7.4-2.9c-0.5-0.4-0.9-0.8-1.4-1.2c-0.5-0.4-0.8-0.9-1.2-1.4
					c-0.5-0.4-0.7-1-1.1-1.5l-0.5-0.8c-0.2-0.3-0.3-0.7-0.5-1c-1.3-2.6-2.3-5.7-3-8.9c-1.4-6.4-2-13.3-2.1-20.2
					c-0.1-1.7,0.1-3.5,0.1-5.2l0.2-5.3c0.1-1.8,0.1-3.5,0.2-5.3l0.5-5.2l0.5-5.2l0.3-2.6l0.4-2.6l1.8-10.4c0.7-3.4,1.6-6.9,2.4-10.3
					c0.4-1.7,0.8-3.4,1.3-5.1l1.5-5.2c1.9-6.9,4.1-13.7,6.3-20.5l3.6-10.1l0.9-2.5l1-2.5l2-4.9c0.7-1.6,1.3-3.3,2-4.9l2.2-4.9
					l4.4-9.8l2.2-4.9c0.7-1.6,1.6-3.2,2.4-4.8L164,82.4z"/>
			</g>
		</g>
	</g>
	<g>
		<path class="st0" d="M401.7,253.5c-7.4-9.3-11.1-22.4-11.2-39.1c0-14.8,2.1-29.8,6.5-45.1c4.4-15.3,9.3-29.6,14.6-42.9
			c5.4-13.3,10.4-25.2,15-35.5c4.6-10.4,7.5-18,8.4-22.9c-0.5,1,1.1,2.2,4.8,3.7c3.7,1.5,7.8,3.7,12.2,6.6
			c4.4,2.9,8.6,6.8,12.6,11.4c4,4.7,5.9,10.7,6,18.1c0,5.4-2.4,11.8-7.3,19.2l-0.7,0c-8.3,15.8-16.8,32.6-25.3,50.3
			c-8.6,17.8-12.8,34.5-12.8,50.3c0,5.4,0.8,9.9,2.3,13.3c1.5,3.4,4.9,5.2,10.4,5.1c8.4,0,18.7-5.1,31-15.2
			c12.3-10.1,23.3-26.5,33.1-49.2l1.5-0.7c2,0,3.7,0.7,5.2,2.2l1.5,1.5c0-0.5-1.1,3.6-3.3,12.2c-2.2,8.6-6.2,18.2-12.1,28.9
			c-5.9,10.6-13.9,20.4-23.9,29.3c-10.1,8.9-22.7,13.4-38,13.4c-4.9,0-10.1-1-15.5-2.9C411,263.4,406.1,259.4,401.7,253.5z
			 M498.6,45.6c-2.5,5.4-6.1,9.9-11,13.3c-4.9,3.5-10.1,5.2-15.5,5.2c-6.9,0-11.8-2.4-14.8-7.3c-3-4.9-4.5-10.6-4.5-17
			c0-7.9,2.3-14.3,7-19.2c4.7-4.9,10.4-7.4,17.3-7.4c6.9,0,12.6,2.2,17,6.6c4.4,4.4,6.7,9.8,6.7,16.2
			C500.8,39.5,500,42.7,498.6,45.6z"/>
		<g>
			<path class="st0" d="M401.7,253.5c-7.4-9.3-11.1-22.4-11.2-39.1c0-14.8,2.1-29.8,6.5-45.1c4.4-15.3,9.3-29.6,14.6-42.9
				c5.4-13.3,10.4-25.2,15-35.5c4.6-10.4,7.5-18,8.4-22.9c-0.5,1,1.1,2.2,4.8,3.7c3.7,1.5,7.8,3.7,12.2,6.6
				c4.4,2.9,8.6,6.8,12.6,11.4c4,4.7,5.9,10.7,6,18.1c0,5.4-2.4,11.8-7.3,19.2l-0.7,0c-8.3,15.8-16.8,32.6-25.3,50.3
				c-8.6,17.8-12.8,34.5-12.8,50.3c0,5.4,0.8,9.9,2.3,13.3c1.5,3.4,4.9,5.2,10.4,5.1c8.4,0,18.7-5.1,31-15.2
				c12.3-10.1,23.3-26.5,33.1-49.2l1.5-0.7c2,0,3.7,0.7,5.2,2.2l1.5,1.5c0-0.5-1.1,3.6-3.3,12.2c-2.2,8.6-6.2,18.2-12.1,28.9
				c-5.9,10.6-13.9,20.4-23.9,29.3c-10.1,8.9-22.7,13.4-38,13.4c-4.9,0-10.1-1-15.5-2.9C411,263.4,406.1,259.4,401.7,253.5z
				 M498.6,45.6c-2.5,5.4-6.1,9.9-11,13.3c-4.9,3.5-10.1,5.2-15.5,5.2c-6.9,0-11.8-2.4-14.8-7.3c-3-4.9-4.5-10.6-4.5-17
				c0-7.9,2.3-14.3,7-19.2c4.7-4.9,10.4-7.4,17.3-7.4c6.9,0,12.6,2.2,17,6.6c4.4,4.4,6.7,9.8,6.7,16.2
				C500.8,39.5,500,42.7,498.6,45.6z"/>
			<g>
				<path class="st0" d="M469.7,57.3c0,0.3,0.3,0.6-0.3,0.6c-1,0-1.6-0.4-2.3-0.7c-0.3-0.2-0.6-0.4-0.9-0.6
					c-0.3-0.2-0.5-0.4-0.9-0.5l-0.3,0.3c-0.8-0.8-1.4-1.7-1.9-2.9c-0.2-0.2-0.4-0.6-0.6-0.9c-0.2-0.3-0.4-0.6-0.6-1
					c-0.3-0.7-0.7-1.3-1-2c-0.6-1.4-1-2.8-1.4-4.3c-0.1,0.1-0.3,0.2-0.4-0.1c-0.3-1.3-0.4-3.1-0.4-5c0-0.3-0.1-0.6-0.1-0.8
					c-0.1-0.2-0.2-0.3-0.3-0.3c0.1-0.9,0.1-1.7,0.2-2.3c0-4.6,1.2-9,4.1-12.9c2.9-3.9,7.2-6.7,12.6-7.6c2.3-0.6,4.8-0.8,7-0.5
					c1.7,0.2,3.5,1,5.2,1.8c1.6,1,3.2,2.1,4.3,3.3c0.2-0.4,0.7-0.4,1.4-0.1c0.7,0.3,1.6,0.8,2.4,1.4c1.6,1.1,3,2.5,3.2,1.3
					c1.4,2.2,2.6,5.9,2.9,6.1c0.7,0.1,1.6,0.6,2.4,2.1c0.4,0.7,0.9,1.7,1.2,3c0.4,1.3,0.5,2.9,0.6,4.9c-0.1,0.8-0.2,1.7-0.4,2.6
					c-0.2,0.9-0.6,1.8-0.8,2.6c-0.6,1.6-1.4,2.9-1.4,3.5c-0.1,0.4,0,0.4,0.2,0.2c0.2-0.1,0.5-0.6,0.8-1c0.6-0.9,1.2-1.8,1.1-0.9
					c1.1-2.9,1.9-5.9,2-8.9c0.1-1.5,0-3,0-4.4c-0.2-1.5-0.3-2.9-0.7-4.4c-0.7-2.9-1.9-5.8-3.5-8.3c-1.6-2.6-3.5-4.8-5.8-6.7
					c-4.5-4-10.5-6.4-16.2-6.9c-1.4-0.2-2.8-0.2-4.3-0.2c-1.4,0.1-2.9,0.1-4.3,0.3c-2.9,0.3-5.9,1.3-8.6,2.5
					c-1.8,1-6.3,3.6-10.2,8.6c-2,2.5-3.9,5.7-5.1,9.2c-1.2,3.6-1.8,7.4-1.9,11.1c-0.1,3.7,0.2,7.5,1.1,11.2c0.9,3.7,2.3,7.1,4,10.1
					c0.2,0.4,0.5,0.8,0.7,1.2c0.3,0.4,0.5,0.8,0.8,1.2c0.5,0.8,1.2,1.4,1.8,2.1c0.6,0.7,1.4,1.2,2,1.8c0.7,0.6,1.4,1,2.1,1.4
					c0.7,0.4,1.3,0.8,2,1c0.7,0.3,1.3,0.5,1.9,0.8c1.2,0.3,2.2,0.7,3.1,0.8l1.3,0.2c0.5,0.1,1,0.2,1.4,0.2c0.5,0,1,0.1,1.4,0.1
					c0.5,0,1,0,1.5,0.1c0.5,0,1,0,1.5-0.1c2-0.1,4-0.5,6-0.9c3.9-1.1,7.2-2.9,9.5-4.8c2.1-1.7,4-3.8,5.6-6c-1,0.7-2.1,1.2-3,1.7
					c2.1-1.6,3.9-3.6,4.4-4.6c1.6-2.4,1.6-3.1,1-3c-0.5,0-1.7,0.8-2.7,1.2c-1.3,0.8-0.6-1.1-2.3,0.2c0.5-0.6,0.9-1,1.3-1.4
					c0.4-0.5,0.7-0.9,1.2-1.5c-0.1-0.2-0.8,0.8-1.5,1.6c-0.7,0.8-1.4,1.5-1.3,0.9c1.1-1,2-2.4,2.9-3.7c-0.4,0.1-1.2,1.1-2,2
					c-0.9,0.9-1.6,1.7-1.8,1.4c0.2-0.3,1.1-1,1.8-1.7c0.7-0.7,1.3-1.4,1.1-1.8c-0.1-0.1-1,1.1-1.5,1.6c1.4-1.9,2.1-3.5,2.2-4.2
					c0.1-0.7-0.4-0.5-1.8,0.9c0.8-1.1,2-2.7,2.5-4.1l0,0c-0.4,0.6-1,1.7-1.4,2.3c0.4-0.7,0.8-1.5,1.2-2.2c-0.1,0.1-0.3,0.2-0.5,0.3
					c-0.4,0.5-0.7,1.1-1,1.6c0.3-0.5,0.5-1,0.8-1.4c-0.4,0.3-0.8,0.6-1.2,0.9c-1.3,1.5-2.9,2.5-3.5,3.2c-1.3,1.5-2.7,2.8-4.3,4
					c-1.6,1.2-3.3,2.2-5,3c-1.7,0.8-3.5,1.3-5.2,1.6C473.2,57.5,471.4,57.5,469.7,57.3z"/>
			</g>
			<g>
				<path class="st0" d="M428.7,103.4c-0.2-0.2-1.3,1.8-0.1-1.5c1.9-4.8,3.8-8.9,5.8-13.3c1-2.1,2-4.3,2.9-6.6
					c0.2-0.6,0.5-1.1,0.7-1.7c0.1-0.3,0.2-0.6,0.4-0.9c0.1-0.3,0.2-0.6,0.3-0.9c0,0,0-0.1,0-0.1c-0.1-0.2-0.2-0.4-0.3-0.6l0.1-0.1
					l0-0.1c0,0,0,0.1,0,0.1c0.1,0.1,0.2,0.2,0.3,0.3l0.3,0.2c0,0,0,0,0,0l0,0c0,0,0.2,0.1,0.2,0.1c0.4,0.2,0.9,0.4,1.3,0.7
					c1.7,0.9,3.4,1.9,5.2,3c0.9,0.6,1.7,1.2,2.6,1.7l2.3,1.8c2.8,2.2,5.6,4.7,8.1,7.5c0.3,0.3,0.7,0.7,0.9,1l0.7,0.9
					c0.4,0.6,0.8,1.2,1.2,1.9c0.3,0.7,0.7,1.3,0.9,2c0.3,0.7,0.5,1.4,0.7,2.2c0.2,0.7,0.3,1.6,0.5,2.3c0.1,0.8,0.2,1.6,0.3,2.5
					l0.1,1.3c0,0.2,0,0.4,0,0.6l0,0.5c0,0.7-0.1,1.4-0.2,2.1c-0.5,3-1.9,6.2-3.7,9.4c0.3-0.3,0.5-0.3-0.1,1
					c-0.5,0.9-1.1,1.8-1.7,2.9c1.6-0.8,3.1-1.7,5-2.7c-0.2,0-0.5,0-0.7,0l-3.7,0l-1.6,3.2c-2.8,5.5-6.3,12.3-9.9,19.3
					c-0.6,1.3-1.3,2.6-1.9,3.9c-0.4,1-0.4,1.4-0.4,1.6c-2,3.9-3.8,7.4-5.5,10.7c-2.6,5.4-5.3,10.8-7.8,16.4
					c-1.2,2.9-2.5,5.7-3.6,8.6c-0.5,1.5-1.1,2.9-1.6,4.4l-1.5,4.5c-0.5,1.5-0.9,3-1.3,4.6c-0.4,1.5-0.9,3.1-1.2,4.6l-1,4.7
					c-0.4,1.6-0.5,3.2-0.7,4.7c-0.2,1.6-0.5,3.2-0.6,4.8c-0.1,1.6-0.3,3.2-0.3,4.8c0,1.6,0,3.2-0.1,4.9c0,1.6,0.1,3.3,0.2,5
					c0.1,0.8,0.2,1.7,0.3,2.6c0.1,0.9,0.2,1.7,0.5,2.6c0.2,0.9,0.4,1.7,0.6,2.6l1,2.6c0.1,0.2,0.2,0.4,0.3,0.7l0.4,0.8
					c0.3,0.5,0.6,1,1,1.5c0.7,1,1.7,1.8,2.6,2.5c2,1.4,4.1,1.9,6.1,2.3c1,0.1,1.9,0.3,2.9,0.2c0.5,0,0.9,0,1.4,0l1.4-0.1
					c0.9-0.1,1.9-0.1,2.7-0.3l2.6-0.6c0.9-0.2,1.7-0.5,2.5-0.8c0.8-0.3,1.7-0.6,2.5-0.9c1.5-0.7,3.2-1.4,4.6-2.2
					c6-3.2,11.3-7.2,16.4-11.5c5.1-4.4,9.7-9.5,13.7-14.9c6.6-9.4,11.8-19.5,16.2-29.4c1-2.2,2-4.5,3.1-6.9c-0.3,0.3-0.6,0.6-0.9,1
					c0.5-0.2,1-0.5,1.5-0.7c-0.3,0.1-0.6,0.1-0.9,0.2c0.9,0.1,1.9,0.2,2.7,0.8c0.2,0.1,0.4,0.3,0.6,0.4l0.6,0.5
					c0.5,0.5,0.9,0.9,1.4,1.4l3.4,3.4l0-4.8c0-0.1,0-0.2,0-0.4l0-0.2c-0.1-0.2,0.2,0.2-0.3-0.6c-0.5-1-2.4-0.9-2.6-0.5
					c-0.1,0.1-0.2,0.1-0.3,0.2c-0.2,0.1-0.3,0.3-0.4,0.5c-0.1,0.1-0.1,0.3-0.1,0.3l-0.1,0.2l-0.1,0.3l-0.2,0.6l-0.3,1.1l-0.6,2.2
					c-0.4,1.4-0.8,2.9-1.2,4.4c-0.4,1.4-0.7,2.9-1.2,4.3c-0.4,1.4-0.9,2.8-1.3,4.2c-0.4,1.4-0.9,2.7-1.4,4.1c-0.5,1.3-1,2.6-1.5,3.9
					c-1.1,2.5-2.3,5-3.3,7.3c0.3-0.2,0.3,0.2,0.1,1c-0.2,0.8-0.6,1.9-1.2,3.4c-0.6,1.4-1.3,3.1-2.1,4.9c-0.9,1.7-1.9,3.6-2.8,5.4
					c-0.5,0.9-0.9,1.8-1.4,2.7c-0.5,0.8-1,1.6-1.5,2.4c-1,1.5-1.8,2.9-2.4,4c-0.6,1.1-1,1.8-1.1,2.2c-0.1,0.3,0.2,0.3,1-0.3
					c-1.8,2-3.7,4.2-5.7,6.4c-0.5,0.6-1,1.1-1.5,1.6c-0.5,0.5-1.1,1-1.6,1.5c-1,1-2.1,2-3,2.9c-1.8,1.9-3.8,3.4-5.2,4.6
					c-1.4,1.1-2.4,1.8-2.5,2c-0.4,0.6-1,1.5-2.2,2.6c-0.6,0.5-1.4,1.1-2.3,1.8c-0.5,0.3-1,0.7-1.5,1.1c-0.6,0.3-1.2,0.7-1.9,1
					c-1.4,0.7-2.9,1.6-4.8,2.3c-0.9,0.4-1.9,0.7-3,1.1c-1.1,0.3-2.2,0.6-3.4,1c-2.4,0.7-5.2,1.1-8.2,1.5c-1.5,0.1-3.1,0.2-4.8,0.4
					c-0.8,0.1-1.7,0.1-2.7,0c-0.9,0-1.9,0-2.9-0.1c-1.5-0.2-3.1-0.4-4.8-0.7c-0.8-0.2-1.6-0.4-2.5-0.6c-0.4-0.1-0.8-0.2-1.3-0.3
					l-1.2-0.4c-1.6-0.5-3.2-1-5-1.8c-1.7-0.8-3.4-1.7-4.8-2.7c-5.9-4-9.2-8.7-10.6-10.2c-1-1.1-1-1-0.5-0.2c0.2,0.4,0.7,1,1.2,1.7
					c0.5,0.7,1.1,1.5,1.7,2.3c2.5,3.1,5.7,5.9,2.8,3.8c2.8,2.6,6,4.8,9.7,6.5c1.9,0.9,3.6,1.3,5.2,1.9l1.3,0.4l1.3,0.3l2.6,0.6
					c1.8,0.3,3.6,0.6,5.4,0.8l2.8,0.1c0.5,0,0.9,0.1,1.4,0l1.3,0c1.7-0.1,3.4-0.1,5.2-0.2l5.2-0.6c6.9-1.1,13.7-3.3,20-6.7
					c1.6-0.8,3.1-1.8,4.6-2.8c0.7-0.5,1.5-0.9,2.2-1.5l2.1-1.7l2.1-1.7l1.8-1.7l3.6-3.4l1.8-1.7c0.6-0.6,1.1-1.2,1.7-1.8l3.3-3.7
					c2.3-2.4,4.2-5.2,6.2-7.8c2.1-2.6,3.7-5.5,5.5-8.4l1.3-2.1c0.4-0.7,0.8-1.4,1.2-2.2l2.2-4.3l1.1-2.2l1-2.2l2-4.5
					c0.7-1.5,1.2-3.1,1.8-4.6c0.6-1.6,1.2-3.1,1.7-4.7c1-3.2,2-6.5,2.7-9.5l1.2-4.5l0.6-2.2l0.3-1l0.1-0.4l0-0.1l0,0
					c0,0,0.1,0-0.1,0l-1.2-0.4c-0.7-0.2-1.4-0.5-2.1-0.7l-0.9-0.3l-0.8-0.3c-0.6-0.3-0.8-0.3-1.2-0.5c-0.1,0-0.2-0.1-0.2-0.1
					c0,0-0.2,0.1-0.3,0c1.7-1.6,3.4-3.2,5.1-4.8l-1.4-1.4l-0.1-0.1l-0.2-0.1l-0.3-0.3l-0.7-0.6c-0.5-0.4-0.9-0.8-1.5-1.1
					c-2.2-1.4-4.8-2-7.4-2.1l-1.5,0l-1.5,0.8c-0.5,0.2-1,0.5-1.5,0.7l-2.2,1.1l-1,2.3c-4.9,11.4-10.7,22.5-17.9,32.4
					c-3.6,4.8-7.5,9.5-12,13.3c-1,1-2.3,2-3.5,2.9l-1.8,1.4l-1.9,1.3c-1.2,0.9-2.5,1.8-3.8,2.6c-1.3,0.8-2.5,1.6-3.8,2.3
					c-1.5,0.9-3.8,2.1-6.6,3.1c-1.4,0.6-2.9,0.9-4.5,1.2c-0.8,0-1.6,0.2-2.4,0.2c-0.8,0-1.6-0.1-2.3-0.2c-0.3-0.1-0.7-0.1-0.8-0.2
					c-0.1,0-0.2-0.1-0.3-0.1c-0.1-0.1-0.1-0.1-0.2-0.1c-0.2-0.2-0.3-0.1-0.4-0.5c0,0-0.1-0.3-0.2-0.5l-0.3-0.7l-0.3-0.7
					c-0.1-0.3-0.1-0.5-0.2-0.8c-0.1-0.6-0.3-1.1-0.4-1.7c-0.1-0.6-0.2-1.2-0.2-1.9c-0.2-1.2-0.2-2.6-0.3-4c0-1.4,0.1-2.9,0.1-4.5
					c0-1.5,0.2-3.1,0.3-4.6c0.1-0.8,0.1-1.6,0.2-2.4c0.1-0.8,0.2-1.6,0.4-2.4c0.9-6.4,2.6-13.2,5.1-20c2.4-6.9,5.5-13.6,9.2-20.8
					c7.2-14.3,14.6-29.1,21.8-43.6c-1.8,1.1-3.5,2.1-5.2,3.2l0.7,0l3.2,0l1.7-2.6c2.3-3.5,4.4-7.2,6-11.3c0.4-1.1,0.8-2.1,1.1-3.2
					c0.3-1.1,0.6-2.2,0.8-3.4l0.3-1.8l0.1-1.8l0-0.9l0-0.8l-0.1-1.6c-0.2-4.3-1.2-8.8-3.1-12.9c-0.5-1-1-2-1.6-3
					c-0.3-0.5-0.6-1-0.9-1.4l-1-1.3c-0.7-1-1.3-1.6-2-2.3c-0.6-0.7-1.3-1.4-1.9-2.1c-2.7-2.7-5.5-5.3-8.6-7.5
					c-0.8-0.5-1.5-1.1-2.3-1.6c-0.7-0.5-1.5-0.9-2.2-1.4c-1.5-0.9-3-1.8-4.5-2.6c-0.8-0.4-1.5-0.8-2.3-1.2c-0.4-0.2-0.8-0.4-1.2-0.6
					l-1.5-0.7c-0.7-0.3-1.3-0.6-2-0.9l-0.5-0.2l-0.2-0.1l0,0c0,0,0,0.1,0,0.1l-0.1,0.2l-0.1,0.5c-0.4,1.3-0.7,2.6-1.1,3.9
					c0,0.1,0,0.2-0.1,0.2l0,0l-0.1,0l-0.1-0.1l-0.3-0.1l-0.6-0.2l-1.1-0.4c-0.7-0.3-1.3-0.5-1.7-0.7l-0.1-0.1c0-0.1-0.1-0.2-0.1-0.2
					c-0.1-0.2-0.1-0.3-0.1-0.5c0,0,0-0.1,0-0.1l0-0.1l0,0l0,0c0.4,1.2-3.9-10.5-2-5.6l-0.1,0.3l-0.3,0.7c-0.4,0.9-0.7,1.8-1.1,2.7
					c-0.2,0.4-0.4,0.9-0.5,1.3l-0.1,0.3c0,0,0,0.2-0.1,0.1l-0.3-0.1l-1.3-0.4c-0.6,2-1.2,4-1.8,6c-0.7,2.3-1,2.9-1.4,4
					c-0.8,2.1-1.6,4-2.4,5.8c-1.6,3.7-3,7-4.2,9.8c-0.6,1.3-1.1,2.7-1.7,4c-2.5,6-5.2,12.3-8,18.7c-1.3,3.2-2.8,6.4-4,9.7
					c-1.2,3.3-2.4,6.7-3.6,10c-1.2,3.3-2.4,6.6-3.5,9.8c-1,3.3-1.9,6.5-2.9,9.6c-0.9,3.1-1.8,6.2-2.7,9.1c-0.4,1.5-0.9,2.9-1.2,4.3
					c-0.3,1.4-0.7,2.9-1,4.2c-0.5,2.5-1.1,5.1-1.6,7.6c-0.4,2.6-0.7,5.2-1.1,7.8c-0.2,1.3-0.4,2.6-0.5,3.9l-0.3,3.9
					c-0.2,2.6-0.4,5.2-0.5,7.8c0.3-2.4,0.7-4.7,1.1-6.9c0.4-2.2,0.6-4.3,1.1-6.2c-0.4,2.6-0.6,5.3-0.9,7.8c-0.3,2.5-0.6,5-0.6,7.2
					c-0.1,2.2-0.1,4.3-0.1,6c0,1.7,0,3.2,0.1,4.2c0.7,11.4,2,13.7,2,12.2c0.1-0.4,0-1,0-1.8c0-0.8,0-1.7,0.1-2.8c0-1,0-2.2,0.1-3.3
					c0.1-1.1,0.2-2.3,0.3-3.3c0.1-3.1,0.5-2.5,0.7-2.4c0.3,0.1,0.6-0.2,1-5c-0.1,1.7-0.1,3.2-0.2,4.6c0,1.4,0.1,2.7,0.1,4
					c0,2.6,0.3,5.1,0.6,8.5c0.1,0.2,0-1-0.1-2.9c-0.1-0.9-0.2-2-0.3-3.2c0-1.2-0.1-2.4-0.1-3.6c-0.1-2.4,0-4.7,0.1-6
					c0.1-1.4,0.2-1.8,0.3-0.7c-0.5,6.6,0.1,14,1.4,20.6c0-0.6-0.1-2.4-0.5-4.6c-0.1-1.1-0.2-2.4-0.3-3.7c-0.1-0.7-0.1-1.3-0.2-2
					c0-0.7,0-1.4,0-2.1c0-1.4-0.1-2.7-0.1-3.9c0.1-1.2,0.1-2.4,0.2-3.3c0.1-1.9,0.2-3,0.4-2.7c0,0.9-0.1,2.6-0.2,4.6
					c0,0.5-0.1,1-0.1,1.5c0,0.5,0,1.1,0,1.6c0,1.1,0,2.2,0,3.4c0,2.2,0.3,4.4,0.4,6c0.2,1.7,0.5,2.8,0.7,3.1
					c0.1,0.1-0.2-1.5-0.4-3.5c-0.1-2.1-0.5-4.6-0.4-6.3c0.4,10.4,3.1,18,4.4,20.7c0.3,0.7,0.5,1.1,0.7,1.1c0.1,0.1,0.1-0.2,0-0.8
					c-0.2-1.2-1-3.8-1.8-8.3c0.7,3.1,1.6,6.8,3.1,10.3c1.3,3.6,3.5,6.8,5.4,9.4c0,0,0,0,0,0c-0.9-1.4-2.3-3.1-3.2-5.1
					c-1.1-1.9-1.9-3.9-2.5-5.3c0.8,1.7,1.4,3.5,2.4,5c0.5,0.8,0.8,1.7,1.4,2.4l1.6,2.2c-0.3-0.5-0.6-1.1-0.9-1.7
					c-0.8-1.1-1.4-2.4-2-3.6c-0.7-1.2-1.2-2.5-1.8-3.8l0.7,1.7c0.2,0.6,0.5,1.1,0.8,1.6c0.6,1,1.2,2.1,1.8,3.2
					c-0.4-0.8-0.7-1.8-1.2-2.7c-0.2-0.5-0.4-1-0.6-1.5c-0.2-0.5-0.3-1.1-0.5-1.6c-3.2-8.1-3.4-16.7-3.7-21.5
					c-0.1-1.2-0.1-2.5-0.1-3.7c0-1.2-0.1-2.4,0-3.7l0.3-7.5l0.1-1.9l0.2-1.9l0.4-3.7c0.3-2.5,0.5-5,1-7.5l1.4-7.4
					c0.2-1.2,0.6-2.5,0.9-3.7l0.9-3.7c1.1-4.9,2.9-9.8,4.4-14.7l2.4-7.4c0.8-2.5,1.5-4.9,2.5-7.3l5.4-14.4c0.5-1.2,0.9-2.4,1.4-3.6
					l1.5-3.6l3.1-7.2C424.7,112.9,426.7,108.1,428.7,103.4z"/>
			</g>
		</g>
	</g>
</g>
</svg>
